<svg xmlns="http://www.w3.org/2000/svg" width="26" height="24" fill="none"><g fill="#fff" clip-path="url(#clip0)"><path d="M13.52 17.53H3.4c-.66 0-1.2-.51-1.2-1.14v-8h16.76v3.79c.24-.02.45-.05.69-.05.23 0 .45.03.68.05V4.93a2.5 2.5 0 0 0-2.57-2.43h-2.63V.65c0-.36-.31-.65-.69-.65a.67.67 0 0 0-.68.65V2.5H7.4V.65C7.4.29 7.1 0 6.72 0a.67.67 0 0 0-.68.65V2.5H3.4A2.5 2.5 0 0 0 .83 4.93v11.46a2.5 2.5 0 0 0 2.57 2.44h10.17a4.95 4.95 0 0 1-.07-.85c0-.16 0-.31.02-.45zM2.2 4.93c0-.63.54-1.14 1.2-1.14h2.64v.9c0 .35.3.64.68.64.38 0 .68-.29.68-.65V3.8h6.34v.9c0 .35.3.64.68.64.38 0 .68-.29.68-.65V3.8h2.64c.66 0 1.2.51 1.2 1.14v2.16H2.2V4.93z"/><path d="M19.65 13.45a4.66 4.66 0 0 0-4.78 4.53c0 2.5 2.14 4.53 4.78 4.53a4.66 4.66 0 0 0 4.78-4.53c0-2.5-2.14-4.53-4.78-4.53zm0 7.76a3.33 3.33 0 0 1-3.42-3.23 3.33 3.33 0 0 1 3.42-3.24 3.33 3.33 0 0 1 3.41 3.24 3.33 3.33 0 0 1-3.41 3.23z"/><path d="M20.99 17.33h-.66v-.62c0-.36-.3-.65-.68-.65a.67.67 0 0 0-.69.65v.62h-.65a.67.67 0 0 0-.69.65c0 .35.3.64.69.64h.65v.63c0 .36.31.65.69.65.37 0 .68-.3.68-.65v-.63h.66c.38 0 .68-.29.68-.64 0-.36-.3-.65-.68-.65z"/></g><defs><clipPath id="clip0"><path fill="#fff" d="M0 0h25.34v24H0z" transform="translate(.64)"/></clipPath></defs></svg>
