<svg width="12" height="12" viewBox="0 0 12 12" fill="none" xmlns="http://www.w3.org/2000/svg">
<path d="M5.812 11.1439C8.52524 11.1439 10.7201 8.85574 10.7201 6.04395C10.7201 3.23215 8.52524 0.943945 5.812 0.943945C3.09877 0.943945 0.903906 3.23215 0.903906 6.04395C0.903906 8.85574 3.09877 11.1439 5.812 11.1439ZM5.812 1.84612C8.03493 1.84612 9.84487 3.72257 9.84487 6.04395C9.84487 8.36532 8.03493 10.2418 5.812 10.2418C3.58908 10.2418 1.77914 8.36532 1.77914 6.04395C1.77914 3.72257 3.58908 1.84612 5.812 1.84612Z" fill="#929292" stroke="#929292" stroke-width="0.2" stroke-linecap="square"/>
<path d="M7.38814 7.12818L7.38717 7.12742L6.02865 6.06785V3.46535C6.02865 3.22014 5.83618 3.01426 5.59103 3.01426C5.34588 3.01426 5.15342 3.22014 5.15342 3.46535V6.28617C5.15342 6.41973 5.20972 6.56097 5.32078 6.6441L6.86713 7.85318C6.94305 7.91586 7.03503 7.94792 7.12776 7.94792C7.26064 7.94792 7.39929 7.88689 7.47871 7.75829C7.62546 7.55566 7.57793 7.28 7.38814 7.12818Z" fill="#929292" stroke="#929292" stroke-width="0.2" stroke-linecap="square"/>
</svg>
