<svg width="14" height="14" viewBox="0 0 14 14" fill="none" xmlns="http://www.w3.org/2000/svg">
<path d="M7.05866 13.8254C10.7943 13.8254 13.8253 10.7943 13.8253 7.0587C13.8253 3.32308 10.7943 0.292029 7.05866 0.292029C3.32305 0.292029 0.291998 3.32308 0.291998 7.0587C0.291998 10.7943 3.32305 13.8254 7.05866 13.8254ZM7.05866 1.42827C10.1673 1.42827 12.6891 3.95008 12.6891 7.0587C12.6891 10.1673 10.1673 12.6891 7.05866 12.6891C3.95005 12.6891 1.42824 10.1673 1.42824 7.0587C1.42824 3.95008 3.95005 1.42827 7.05866 1.42827Z" fill="#767676" stroke="#767676" stroke-width="0.2" stroke-linecap="square"/>
<path d="M9.2181 8.52904L9.21713 8.5283L7.32008 7.10551V3.6204C7.32008 3.3069 7.06546 3.05228 6.75196 3.05228C6.43846 3.05228 6.18384 3.3069 6.18384 3.6204V7.3815C6.18384 7.55292 6.25929 7.73068 6.40222 7.83338L8.54707 9.44605C8.64555 9.52438 8.76403 9.56383 8.88271 9.56383C9.05428 9.56383 9.23343 9.48808 9.33616 9.32727C9.53018 9.07078 9.46721 8.72066 9.2181 8.52904Z" fill="#767676" stroke="#767676" stroke-width="0.2" stroke-linecap="square"/>
</svg>
