<svg xmlns="http://www.w3.org/2000/svg" width="14" height="14" fill="none"><path fill="#767676" stroke="#767676" stroke-linecap="square" stroke-width=".2" d="M7.06 13.83a6.77 6.77 0 1 0 0-13.54 6.77 6.77 0 0 0 0 13.54zm0-12.4a5.63 5.63 0 1 1 0 11.26 5.63 5.63 0 0 1 0-11.26z"/><path fill="#767676" stroke="#767676" stroke-linecap="square" stroke-width=".2" d="M9.22 8.53L7.32 7.1V3.62a.57.57 0 0 0-1.14 0v3.76c0 .17.08.35.22.45l2.15 1.62c.1.07.21.11.33.11.17 0 .35-.07.46-.23.19-.26.13-.6-.12-.8z"/></svg>
