<?xml version="1.0" standalone="no"?><!DOCTYPE svg PUBLIC "-//W3C//DTD SVG 1.1//EN" "http://www.w3.org/Graphics/SVG/1.1/DTD/svg11.dtd"><svg width="100%" height="100%" viewBox="0 0 30 30" version="1.1" xmlns="http://www.w3.org/2000/svg" xmlns:xlink="http://www.w3.org/1999/xlink" xml:space="preserve" style="fill-rule:evenodd;clip-rule:evenodd;stroke-linecap:square;stroke-miterlimit:1.41421;"><path d="M15.11,27.885c7.053,0 12.775,-5.722 12.775,-12.775c0,-7.053 -5.722,-12.775 -12.775,-12.775c-7.052,0 -12.775,5.722 -12.775,12.775c0,7.053 5.723,12.775 12.775,12.775ZM15.11,4.64c5.781,0 10.47,4.69 10.47,10.47c0,5.78 -4.689,10.47 -10.47,10.47c-5.78,0 -10.469,-4.69 -10.469,-10.47c0,-5.78 4.689,-10.47 10.469,-10.47Z" style="fill:#9e9e9e;fill-rule:nonzero;stroke-width:0.55px;stroke:#9e9e9e;"/><path d="M19.212,17.798l-0.002,-0.002l-3.522,-2.642l0,-6.491c0,-0.636 -0.517,-1.152 -1.153,-1.152c-0.636,0 -1.153,0.516 -1.153,1.152l0,7.052c0,0.345 0.151,0.706 0.445,0.918l4.02,3.023c0.2,0.158 0.441,0.239 0.683,0.239c0.345,0 0.71,-0.152 0.922,-0.481c0.392,-0.522 0.262,-1.231 -0.24,-1.616Z" style="fill:#9e9e9e;fill-rule:nonzero;stroke-width:0.55px;stroke:#9e9e9e;"/></svg>