<svg xmlns="http://www.w3.org/2000/svg" width="1440" height="526" fill="none"><mask id="a" width="1440" height="513" x="0" y="0" mask-type="alpha" maskUnits="userSpaceOnUse"><path fill="url(#paint0_linear)" d="M1440 459.049V0H0v513c897.346 0 1440-53.951 1440-53.951z"/></mask><g mask="url(#a)"><path fill="url(#paint1_linear)" d="M1440 457.049V-2H0v513c897.346 0 1440-53.951 1440-53.951z" filter="url(#filter0_d)"/><mask id="b" width="75" height="76" x="0" y="227" mask-type="alpha" maskUnits="userSpaceOnUse"><path fill="#C4C4C4" d="M0 227.136h74.954v74.954H0z"/></mask><g fill="#386339" mask="url(#b)"><path d="M5.995 253.206l5.538 5.538-17.403 17.403-5.538-5.537 17.403-17.404z"/><path d="M-11.408 258.744l5.538-5.538 17.403 17.404-5.538 5.537-17.403-17.403zM80.95 253.206l5.537 5.538-17.403 17.403-5.537-5.537 17.403-17.404z"/><path d="M63.547 258.744l5.537-5.538 17.403 17.404-5.537 5.537-17.403-17.403zM43.473 215.729l5.537 5.537-17.403 17.404-5.537-5.538 17.403-17.403z"/><path d="M26.07 221.266l5.537-5.537 17.403 17.403-5.537 5.538-17.403-17.404zM43.473 290.684l5.537 5.537-17.403 17.403-5.537-5.537 17.403-17.403z"/><path d="M26.07 296.221l5.537-5.537 17.403 17.403-5.537 5.537-17.403-17.403z"/></g><mask id="c" width="76" height="76" x="73" y="227" mask-type="alpha" maskUnits="userSpaceOnUse"><path fill="#C4C4C4" d="M73.836 227.136h74.954v74.954H73.836z"/></mask><g fill="#386339" mask="url(#c)"><path d="M79.832 253.206l5.537 5.538-17.403 17.403-5.538-5.537 17.404-17.404z"/><path d="M62.428 258.744l5.538-5.538 17.403 17.404-5.537 5.537-17.404-17.403zM154.786 253.206l5.538 5.538-17.404 17.403-5.537-5.537 17.403-17.404z"/><path d="M137.383 258.744l5.537-5.538 17.404 17.404-5.538 5.537-17.403-17.403zM117.309 215.729l5.537 5.537-17.403 17.404-5.537-5.538 17.403-17.403z"/><path d="M99.906 221.266l5.537-5.537 17.403 17.403-5.537 5.538-17.403-17.404zM117.309 290.684l5.537 5.537-17.403 17.403-5.537-5.537 17.403-17.403z"/><path d="M99.906 296.221l5.537-5.537 17.403 17.403-5.537 5.537-17.403-17.403z"/></g><mask id="d" width="76" height="76" x="148" y="227" mask-type="alpha" maskUnits="userSpaceOnUse"><path fill="#C4C4C4" d="M148.79 227.136h74.954v74.954H148.79z"/></mask><g fill="#386339" mask="url(#d)"><path d="M154.786 253.206l5.538 5.538-17.404 17.403-5.537-5.537 17.403-17.404z"/><path d="M137.383 258.744l5.537-5.538 17.404 17.404-5.538 5.537-17.403-17.403zM229.741 253.206l5.537 5.538-17.403 17.403-5.537-5.537 17.403-17.404z"/><path d="M212.338 258.744l5.537-5.538 17.403 17.404-5.537 5.537-17.403-17.403zM192.263 215.729l5.538 5.537-17.403 17.404-5.538-5.538 17.403-17.403z"/><path d="M174.86 221.266l5.538-5.537 17.403 17.403-5.537 5.538-17.404-17.404zM192.263 290.684l5.538 5.537-17.403 17.403-5.538-5.537 17.403-17.403z"/><path d="M174.86 296.221l5.538-5.537 17.403 17.403-5.537 5.537-17.404-17.403z"/></g><mask id="e" width="76" height="76" x="223" y="227" mask-type="alpha" maskUnits="userSpaceOnUse"><path fill="#C4C4C4" d="M223.745 227.136h74.954v74.954h-74.954z"/></mask><g fill="#386339" mask="url(#e)"><path d="M229.741 253.206l5.537 5.538-17.403 17.403-5.538-5.537 17.404-17.404z"/><path d="M212.337 258.744l5.538-5.538 17.403 17.404-5.537 5.537-17.404-17.403zM304.695 253.206l5.538 5.538-17.404 17.403-5.537-5.537 17.403-17.404z"/><path d="M287.292 258.744l5.537-5.538 17.404 17.404-5.538 5.537-17.403-17.403zM267.218 215.729l5.537 5.537-17.403 17.404-5.537-5.538 17.403-17.403z"/><path d="M249.815 221.266l5.537-5.537 17.403 17.403-5.537 5.538-17.403-17.404zM267.218 290.684l5.537 5.537-17.403 17.403-5.537-5.537 17.403-17.403z"/><path d="M249.815 296.221l5.537-5.537 17.403 17.403-5.537 5.537-17.403-17.403z"/></g><mask id="f" width="76" height="76" x="298" y="227" mask-type="alpha" maskUnits="userSpaceOnUse"><path fill="#C4C4C4" d="M298.7 227.136h74.954v74.954H298.7z"/></mask><g fill="#386339" mask="url(#f)"><path d="M304.695 253.206l5.538 5.538-17.404 17.403-5.537-5.537 17.403-17.404z"/><path d="M287.292 258.744l5.537-5.538 17.404 17.404-5.538 5.537-17.403-17.403zM379.649 253.206l5.538 5.538-17.403 17.403-5.538-5.537 17.403-17.404z"/><path d="M362.246 258.744l5.538-5.538 17.403 17.404-5.538 5.537-17.403-17.403zM342.173 215.729l5.537 5.537-17.403 17.404-5.538-5.538 17.404-17.403z"/><path d="M324.769 221.266l5.538-5.537 17.403 17.403-5.537 5.538-17.404-17.404zM342.173 290.684l5.537 5.537-17.403 17.403-5.538-5.537 17.404-17.403z"/><path d="M324.769 296.221l5.538-5.537 17.403 17.403-5.537 5.537-17.404-17.403z"/></g><mask id="g" width="76" height="76" x="373" y="227" mask-type="alpha" maskUnits="userSpaceOnUse"><path fill="#C4C4C4" d="M373.095 227.136h74.954v74.954h-74.954z"/></mask><g fill="#386339" mask="url(#g)"><path d="M379.091 253.206l5.537 5.538-17.403 17.403-5.538-5.537 17.404-17.404z"/><path d="M361.687 258.744l5.538-5.538 17.403 17.404-5.537 5.537-17.404-17.403zM454.045 253.206l5.538 5.538-17.403 17.403-5.538-5.537 17.403-17.404z"/><path d="M436.642 258.744l5.538-5.538 17.403 17.404-5.538 5.537-17.403-17.403zM416.568 215.729l5.538 5.537-17.404 17.404-5.537-5.538 17.403-17.403z"/><path d="M399.165 221.266l5.537-5.537 17.404 17.403-5.538 5.538-17.403-17.404zM416.568 290.684l5.538 5.537-17.404 17.403-5.537-5.537 17.403-17.403z"/><path d="M399.165 296.221l5.537-5.537 17.404 17.403-5.538 5.537-17.403-17.403z"/></g><mask id="h" width="76" height="76" x="447" y="227" mask-type="alpha" maskUnits="userSpaceOnUse"><path fill="#C4C4C4" d="M447.49 227.136h74.954v74.954H447.49z"/></mask><g fill="#386339" mask="url(#h)"><path d="M453.486 253.206l5.537 5.538-17.403 17.403-5.537-5.537 17.403-17.404z"/><path d="M436.083 258.744l5.537-5.538 17.403 17.404-5.537 5.537-17.403-17.403zM528.441 253.206l5.537 5.538-17.403 17.403-5.538-5.537 17.404-17.404z"/><path d="M511.037 258.744l5.538-5.538 17.403 17.404-5.537 5.537-17.404-17.403zM490.963 215.729l5.538 5.537-17.404 17.404-5.537-5.538 17.403-17.403z"/><path d="M473.56 221.266l5.537-5.537 17.404 17.403-5.538 5.538-17.403-17.404zM490.963 290.684l5.538 5.537-17.404 17.403-5.537-5.537 17.403-17.403z"/><path d="M473.56 296.221l5.537-5.537 17.404 17.403-5.538 5.537-17.403-17.403z"/></g><mask id="i" width="76" height="76" x="522" y="227" mask-type="alpha" maskUnits="userSpaceOnUse"><path fill="#C4C4C4" d="M522.444 227.136h74.954v74.954h-74.954z"/></mask><g fill="#386339" mask="url(#i)"><path d="M528.441 253.206l5.537 5.538-17.403 17.403-5.538-5.537 17.404-17.404z"/><path d="M511.037 258.744l5.538-5.538 17.403 17.404-5.537 5.537-17.404-17.403zM603.396 253.206l5.537 5.538-17.403 17.403-5.538-5.537 17.404-17.404z"/><path d="M585.992 258.744l5.538-5.538 17.403 17.404-5.537 5.537-17.404-17.403zM565.918 215.729l5.537 5.537-17.403 17.404-5.537-5.538 17.403-17.403z"/><path d="M548.515 221.266l5.537-5.537 17.403 17.403-5.537 5.538-17.403-17.404zM565.918 290.684l5.537 5.537-17.403 17.403-5.537-5.537 17.403-17.403z"/><path d="M548.515 296.221l5.537-5.537 17.403 17.403-5.537 5.537-17.403-17.403z"/></g><mask id="j" width="76" height="76" x="597" y="227" mask-type="alpha" maskUnits="userSpaceOnUse"><path fill="#C4C4C4" d="M597.399 227.136h74.954v74.954h-74.954z"/></mask><g fill="#386339" mask="url(#j)"><path d="M603.395 253.206l5.537 5.538-17.403 17.403-5.537-5.537 17.403-17.404z"/><path d="M585.992 258.744l5.537-5.538 17.403 17.404-5.537 5.537-17.403-17.403zM678.349 253.206l5.538 5.538-17.403 17.403-5.538-5.537 17.403-17.404z"/><path d="M660.946 258.744l5.538-5.538 17.403 17.404-5.538 5.537-17.403-17.403zM640.872 215.729l5.538 5.537-17.403 17.404-5.538-5.538 17.403-17.403z"/><path d="M623.469 221.266l5.538-5.537 17.403 17.403-5.538 5.538-17.403-17.404zM640.872 290.684l5.538 5.537-17.403 17.403-5.538-5.537 17.403-17.403z"/><path d="M623.469 296.221l5.538-5.537 17.403 17.403-5.538 5.537-17.403-17.403z"/></g><mask id="k" width="76" height="76" x="672" y="227" mask-type="alpha" maskUnits="userSpaceOnUse"><path fill="#C4C4C4" d="M672.354 227.136h74.954v74.954h-74.954z"/></mask><g fill="#386339" mask="url(#k)"><path d="M678.349 253.206l5.538 5.538-17.403 17.403-5.538-5.537 17.403-17.404z"/><path d="M660.946 258.744l5.538-5.538 17.403 17.404-5.538 5.537-17.403-17.403zM753.304 253.206l5.537 5.538-17.403 17.403-5.537-5.537 17.403-17.404z"/><path d="M735.901 258.744l5.537-5.538 17.403 17.404-5.537 5.537-17.403-17.403zM715.827 215.729l5.537 5.537-17.403 17.404-5.537-5.538 17.403-17.403z"/><path d="M698.424 221.266l5.537-5.537 17.403 17.403-5.537 5.538-17.403-17.404zM715.827 290.684l5.537 5.537-17.403 17.403-5.537-5.537 17.403-17.403z"/><path d="M698.424 296.221l5.537-5.537 17.403 17.403-5.537 5.537-17.403-17.403z"/></g><mask id="l" width="76" height="76" x="746" y="227" mask-type="alpha" maskUnits="userSpaceOnUse"><path fill="#C4C4C4" d="M746.749 227.136h74.954v74.954h-74.954z"/></mask><g fill="#386339" mask="url(#l)"><path d="M752.745 253.206l5.537 5.538-17.403 17.403-5.538-5.537 17.404-17.404z"/><path d="M735.341 258.744l5.538-5.538 17.403 17.404-5.537 5.537-17.404-17.403zM827.699 253.206l5.537 5.538-17.403 17.403-5.537-5.537 17.403-17.404z"/><path d="M810.296 258.744l5.537-5.538 17.403 17.404-5.537 5.537-17.403-17.403zM790.222 215.729l5.537 5.537-17.403 17.404-5.537-5.538 17.403-17.403z"/><path d="M772.819 221.266l5.537-5.537 17.403 17.403-5.537 5.538-17.403-17.404zM790.222 290.684l5.537 5.537-17.403 17.403-5.537-5.537 17.403-17.403z"/><path d="M772.819 296.221l5.537-5.537 17.403 17.403-5.537 5.537-17.403-17.403z"/></g><mask id="m" width="75" height="76" x="0" y="302" mask-type="alpha" maskUnits="userSpaceOnUse"><path fill="#C4C4C4" d="M0 302.091h74.954v74.954H0z"/></mask><g fill="#386339" mask="url(#m)"><path d="M5.995 328.161l5.538 5.537-17.403 17.404-5.538-5.538 17.403-17.403z"/><path d="M-11.408 333.698l5.538-5.537 17.403 17.403-5.538 5.538-17.403-17.404zM80.95 328.161l5.537 5.537-17.403 17.404-5.537-5.538 17.403-17.403z"/><path d="M63.547 333.698l5.537-5.537 17.403 17.403-5.537 5.538-17.403-17.404zM43.473 290.684l5.537 5.537-17.403 17.403-5.537-5.537 17.403-17.403z"/><path d="M26.07 296.221l5.537-5.537 17.403 17.403-5.537 5.537-17.403-17.403zM43.473 365.638l5.537 5.538-17.403 17.403-5.537-5.538 17.403-17.403z"/><path d="M26.07 371.176l5.537-5.538 17.403 17.403-5.537 5.538-17.403-17.403z"/></g><mask id="n" width="76" height="76" x="73" y="302" mask-type="alpha" maskUnits="userSpaceOnUse"><path fill="#C4C4C4" d="M73.836 302.091h74.954v74.954H73.836z"/></mask><g fill="#386339" mask="url(#n)"><path d="M79.832 328.161l5.537 5.537-17.403 17.404-5.538-5.538 17.404-17.403z"/><path d="M62.428 333.698l5.538-5.537 17.403 17.403-5.537 5.538-17.404-17.404zM154.786 328.161l5.538 5.537-17.404 17.404-5.537-5.538 17.403-17.403z"/><path d="M137.383 333.698l5.537-5.537 17.404 17.403-5.538 5.538-17.403-17.404zM117.309 290.684l5.537 5.537-17.403 17.403-5.537-5.537 17.403-17.403z"/><path d="M99.906 296.221l5.537-5.537 17.403 17.403-5.537 5.537-17.403-17.403zM117.309 365.638l5.537 5.538-17.403 17.403-5.537-5.538 17.403-17.403z"/><path d="M99.906 371.176l5.537-5.538 17.403 17.403-5.537 5.538-17.403-17.403z"/></g><mask id="o" width="76" height="76" x="148" y="302" mask-type="alpha" maskUnits="userSpaceOnUse"><path fill="#C4C4C4" d="M148.79 302.091h74.954v74.954H148.79z"/></mask><g fill="#386339" mask="url(#o)"><path d="M154.786 328.161l5.538 5.537-17.404 17.404-5.537-5.538 17.403-17.403z"/><path d="M137.383 333.698l5.537-5.537 17.404 17.403-5.538 5.538-17.403-17.404zM229.741 328.161l5.537 5.537-17.403 17.404-5.537-5.538 17.403-17.403z"/><path d="M212.338 333.698l5.537-5.537 17.403 17.403-5.537 5.538-17.403-17.404zM192.263 290.684l5.538 5.537-17.403 17.403-5.538-5.537 17.403-17.403z"/><path d="M174.86 296.221l5.538-5.537 17.403 17.403-5.537 5.537-17.404-17.403zM192.263 365.638l5.538 5.538-17.403 17.403-5.538-5.538 17.403-17.403z"/><path d="M174.86 371.176l5.538-5.538 17.403 17.403-5.537 5.538-17.404-17.403z"/></g><mask id="p" width="76" height="76" x="223" y="302" mask-type="alpha" maskUnits="userSpaceOnUse"><path fill="#C4C4C4" d="M223.745 302.091h74.954v74.954h-74.954z"/></mask><g fill="#386339" mask="url(#p)"><path d="M229.741 328.161l5.537 5.537-17.403 17.404-5.538-5.538 17.404-17.403z"/><path d="M212.337 333.698l5.538-5.537 17.403 17.403-5.537 5.538-17.404-17.404zM304.695 328.161l5.538 5.537-17.404 17.404-5.537-5.538 17.403-17.403z"/><path d="M287.292 333.698l5.537-5.537 17.404 17.403-5.538 5.538-17.403-17.404zM267.218 290.684l5.537 5.537-17.403 17.403-5.537-5.537 17.403-17.403z"/><path d="M249.815 296.221l5.537-5.537 17.403 17.403-5.537 5.537-17.403-17.403zM267.218 365.638l5.537 5.538-17.403 17.403-5.537-5.538 17.403-17.403z"/><path d="M249.815 371.176l5.537-5.538 17.403 17.403-5.537 5.538-17.403-17.403z"/></g><mask id="q" width="76" height="76" x="298" y="302" mask-type="alpha" maskUnits="userSpaceOnUse"><path fill="#C4C4C4" d="M298.7 302.091h74.954v74.954H298.7z"/></mask><g fill="#386339" mask="url(#q)"><path d="M304.695 328.161l5.538 5.537-17.404 17.404-5.537-5.538 17.403-17.403z"/><path d="M287.292 333.698l5.537-5.537 17.404 17.403-5.538 5.538-17.403-17.404zM379.649 328.161l5.538 5.537-17.403 17.404-5.538-5.538 17.403-17.403z"/><path d="M362.246 333.698l5.538-5.537 17.403 17.403-5.538 5.538-17.403-17.404zM342.173 290.684l5.537 5.537-17.403 17.403-5.538-5.537 17.404-17.403z"/><path d="M324.769 296.221l5.538-5.537 17.403 17.403-5.537 5.537-17.404-17.403zM342.173 365.638l5.537 5.538-17.403 17.403-5.538-5.538 17.404-17.403z"/><path d="M324.769 371.176l5.538-5.538 17.403 17.403-5.537 5.538-17.404-17.403z"/></g><mask id="r" width="76" height="76" x="373" y="302" mask-type="alpha" maskUnits="userSpaceOnUse"><path fill="#C4C4C4" d="M373.095 302.091h74.954v74.954h-74.954z"/></mask><g fill="#386339" mask="url(#r)"><path d="M379.091 328.161l5.537 5.537-17.403 17.404-5.538-5.538 17.404-17.403z"/><path d="M361.687 333.698l5.538-5.537 17.403 17.403-5.537 5.538-17.404-17.404zM454.045 328.161l5.538 5.537-17.403 17.404-5.538-5.538 17.403-17.403z"/><path d="M436.642 333.698l5.538-5.537 17.403 17.403-5.538 5.538-17.403-17.404zM416.568 290.684l5.538 5.537-17.404 17.403-5.537-5.537 17.403-17.403z"/><path d="M399.165 296.221l5.537-5.537 17.404 17.403-5.538 5.537-17.403-17.403zM416.568 365.638l5.538 5.538-17.404 17.403-5.537-5.538 17.403-17.403z"/><path d="M399.165 371.176l5.537-5.538 17.404 17.403-5.538 5.538-17.403-17.403z"/></g><mask id="s" width="76" height="76" x="447" y="302" mask-type="alpha" maskUnits="userSpaceOnUse"><path fill="#C4C4C4" d="M447.49 302.091h74.954v74.954H447.49z"/></mask><g fill="#386339" mask="url(#s)"><path d="M453.486 328.161l5.537 5.537-17.403 17.404-5.537-5.538 17.403-17.403z"/><path d="M436.083 333.698l5.537-5.537 17.403 17.403-5.537 5.538-17.403-17.404zM528.441 328.161l5.537 5.537-17.403 17.404-5.538-5.538 17.404-17.403z"/><path d="M511.037 333.698l5.538-5.537 17.403 17.403-5.537 5.538-17.404-17.404zM490.963 290.684l5.538 5.537-17.404 17.403-5.537-5.537 17.403-17.403z"/><path d="M473.56 296.221l5.537-5.537 17.404 17.403-5.538 5.537-17.403-17.403zM490.963 365.638l5.538 5.538-17.404 17.403-5.537-5.538 17.403-17.403z"/><path d="M473.56 371.176l5.537-5.538 17.404 17.403-5.538 5.538-17.403-17.403z"/></g><mask id="t" width="76" height="76" x="522" y="302" mask-type="alpha" maskUnits="userSpaceOnUse"><path fill="#C4C4C4" d="M522.444 302.091h74.954v74.954h-74.954z"/></mask><g fill="#386339" mask="url(#t)"><path d="M528.441 328.161l5.537 5.537-17.403 17.404-5.538-5.538 17.404-17.403z"/><path d="M511.037 333.698l5.538-5.537 17.403 17.403-5.537 5.538-17.404-17.404zM603.396 328.161l5.537 5.537-17.403 17.404-5.538-5.538 17.404-17.403z"/><path d="M585.992 333.698l5.538-5.537 17.403 17.403-5.537 5.538-17.404-17.404zM565.918 290.684l5.537 5.537-17.403 17.403-5.537-5.537 17.403-17.403z"/><path d="M548.515 296.221l5.537-5.537 17.403 17.403-5.537 5.537-17.403-17.403zM565.918 365.638l5.537 5.538-17.403 17.403-5.537-5.538 17.403-17.403z"/><path d="M548.515 371.176l5.537-5.538 17.403 17.403-5.537 5.538-17.403-17.403z"/></g><mask id="u" width="76" height="76" x="597" y="302" mask-type="alpha" maskUnits="userSpaceOnUse"><path fill="#C4C4C4" d="M597.399 302.091h74.954v74.954h-74.954z"/></mask><g fill="#386339" mask="url(#u)"><path d="M603.395 328.161l5.537 5.537-17.403 17.404-5.537-5.538 17.403-17.403z"/><path d="M585.992 333.698l5.537-5.537 17.403 17.403-5.537 5.538-17.403-17.404zM678.349 328.161l5.538 5.537-17.403 17.404-5.538-5.538 17.403-17.403z"/><path d="M660.946 333.698l5.538-5.537 17.403 17.403-5.538 5.538-17.403-17.404zM640.872 290.684l5.538 5.537-17.403 17.403-5.538-5.537 17.403-17.403z"/><path d="M623.469 296.221l5.538-5.537 17.403 17.403-5.538 5.537-17.403-17.403zM640.872 365.638l5.538 5.538-17.403 17.403-5.538-5.538 17.403-17.403z"/><path d="M623.469 371.176l5.538-5.538 17.403 17.403-5.538 5.538-17.403-17.403z"/></g><mask id="v" width="76" height="76" x="672" y="302" mask-type="alpha" maskUnits="userSpaceOnUse"><path fill="#C4C4C4" d="M672.354 302.091h74.954v74.954h-74.954z"/></mask><g fill="#386339" mask="url(#v)"><path d="M678.349 328.161l5.538 5.537-17.403 17.404-5.538-5.538 17.403-17.403z"/><path d="M660.946 333.698l5.538-5.537 17.403 17.403-5.538 5.538-17.403-17.404zM753.304 328.161l5.537 5.537-17.403 17.404-5.537-5.538 17.403-17.403z"/><path d="M735.901 333.698l5.537-5.537 17.403 17.403-5.537 5.538-17.403-17.404zM715.827 290.684l5.537 5.537-17.403 17.403-5.537-5.537 17.403-17.403z"/><path d="M698.424 296.221l5.537-5.537 17.403 17.403-5.537 5.537-17.403-17.403zM715.827 365.638l5.537 5.538-17.403 17.403-5.537-5.538 17.403-17.403z"/><path d="M698.424 371.176l5.537-5.538 17.403 17.403-5.537 5.538-17.403-17.403z"/></g><mask id="w" width="76" height="76" x="746" y="302" mask-type="alpha" maskUnits="userSpaceOnUse"><path fill="#C4C4C4" d="M746.749 302.091h74.954v74.954h-74.954z"/></mask><g fill="#386339" mask="url(#w)"><path d="M752.745 328.161l5.537 5.537-17.403 17.404-5.538-5.538 17.404-17.403z"/><path d="M735.341 333.698l5.538-5.537 17.403 17.403-5.537 5.538-17.404-17.404zM827.699 328.161l5.537 5.537-17.403 17.404-5.537-5.538 17.403-17.403z"/><path d="M810.296 333.698l5.537-5.537 17.403 17.403-5.537 5.538-17.403-17.404zM790.222 290.684l5.537 5.537-17.403 17.403-5.537-5.537 17.403-17.403z"/><path d="M772.819 296.221l5.537-5.537 17.403 17.403-5.537 5.537-17.403-17.403zM790.222 365.638l5.537 5.538-17.403 17.403-5.537-5.538 17.403-17.403z"/><path d="M772.819 371.176l5.537-5.538 17.403 17.403-5.537 5.538-17.403-17.403z"/></g><mask id="x" width="75" height="75" x="0" y="377" mask-type="alpha" maskUnits="userSpaceOnUse"><path fill="#C4C4C4" d="M0 377.045h74.954v74.954H0z"/></mask><g fill="#386339" mask="url(#x)"><path d="M5.995 403.115l5.538 5.538-17.403 17.403-5.538-5.537 17.403-17.404z"/><path d="M-11.408 408.653l5.538-5.538 17.403 17.404-5.538 5.537-17.403-17.403zM80.95 403.115l5.537 5.538-17.403 17.403-5.537-5.537 17.403-17.404z"/><path d="M63.547 408.653l5.537-5.538 17.403 17.404-5.537 5.537-17.403-17.403zM43.473 365.638l5.537 5.538-17.403 17.403-5.537-5.538 17.403-17.403z"/><path d="M26.07 371.176l5.537-5.538 17.403 17.403-5.537 5.538-17.403-17.403zM43.473 440.593l5.537 5.537-17.403 17.403-5.537-5.537 17.403-17.403z"/><path d="M26.07 446.13l5.537-5.537 17.403 17.403-5.537 5.537L26.07 446.13z"/></g><mask id="y" width="76" height="75" x="73" y="377" mask-type="alpha" maskUnits="userSpaceOnUse"><path fill="#C4C4C4" d="M73.836 377.045h74.954v74.954H73.836z"/></mask><g fill="#386339" mask="url(#y)"><path d="M79.832 403.115l5.537 5.538-17.403 17.403-5.538-5.537 17.404-17.404z"/><path d="M62.428 408.653l5.538-5.538 17.403 17.404-5.537 5.537-17.404-17.403zM154.786 403.115l5.538 5.538-17.404 17.403-5.537-5.537 17.403-17.404z"/><path d="M137.383 408.653l5.537-5.538 17.404 17.404-5.538 5.537-17.403-17.403zM117.309 365.638l5.537 5.538-17.403 17.403-5.537-5.538 17.403-17.403z"/><path d="M99.906 371.176l5.537-5.538 17.403 17.403-5.537 5.538-17.403-17.403zM117.309 440.593l5.537 5.537-17.403 17.403-5.537-5.537 17.403-17.403z"/><path d="M99.906 446.13l5.537-5.537 17.403 17.403-5.537 5.537-17.403-17.403z"/></g><mask id="z" width="76" height="75" x="148" y="377" mask-type="alpha" maskUnits="userSpaceOnUse"><path fill="#C4C4C4" d="M148.79 377.045h74.954v74.954H148.79z"/></mask><g fill="#386339" mask="url(#z)"><path d="M154.786 403.115l5.538 5.538-17.404 17.403-5.537-5.537 17.403-17.404z"/><path d="M137.383 408.653l5.537-5.538 17.404 17.404-5.538 5.537-17.403-17.403zM229.741 403.115l5.537 5.538-17.403 17.403-5.537-5.537 17.403-17.404z"/><path d="M212.338 408.653l5.537-5.538 17.403 17.404-5.537 5.537-17.403-17.403zM192.263 365.638l5.538 5.538-17.403 17.403-5.538-5.538 17.403-17.403z"/><path d="M174.86 371.176l5.538-5.538 17.403 17.403-5.537 5.538-17.404-17.403zM192.263 440.593l5.538 5.537-17.403 17.403-5.538-5.537 17.403-17.403z"/><path d="M174.86 446.13l5.538-5.537 17.403 17.403-5.537 5.537-17.404-17.403z"/></g><mask id="A" width="76" height="75" x="223" y="377" mask-type="alpha" maskUnits="userSpaceOnUse"><path fill="#C4C4C4" d="M223.745 377.045h74.954v74.954h-74.954z"/></mask><g fill="#386339" mask="url(#A)"><path d="M229.741 403.115l5.537 5.538-17.403 17.403-5.538-5.537 17.404-17.404z"/><path d="M212.337 408.653l5.538-5.538 17.403 17.404-5.537 5.537-17.404-17.403zM304.695 403.115l5.538 5.538-17.404 17.403-5.537-5.537 17.403-17.404z"/><path d="M287.292 408.653l5.537-5.538 17.404 17.404-5.538 5.537-17.403-17.403zM267.218 365.638l5.537 5.538-17.403 17.403-5.537-5.538 17.403-17.403z"/><path d="M249.815 371.176l5.537-5.538 17.403 17.403-5.537 5.538-17.403-17.403zM267.218 440.593l5.537 5.537-17.403 17.403-5.537-5.537 17.403-17.403z"/><path d="M249.815 446.13l5.537-5.537 17.403 17.403-5.537 5.537-17.403-17.403z"/></g><mask id="B" width="76" height="75" x="298" y="377" mask-type="alpha" maskUnits="userSpaceOnUse"><path fill="#C4C4C4" d="M298.7 377.045h74.954v74.954H298.7z"/></mask><g fill="#386339" mask="url(#B)"><path d="M304.695 403.115l5.538 5.538-17.404 17.403-5.537-5.537 17.403-17.404z"/><path d="M287.292 408.653l5.537-5.538 17.404 17.404-5.538 5.537-17.403-17.403zM379.649 403.115l5.538 5.538-17.403 17.403-5.538-5.537 17.403-17.404z"/><path d="M362.246 408.653l5.538-5.538 17.403 17.404-5.538 5.537-17.403-17.403zM342.173 365.638l5.537 5.538-17.403 17.403-5.538-5.538 17.404-17.403z"/><path d="M324.769 371.176l5.538-5.538 17.403 17.403-5.537 5.538-17.404-17.403zM342.173 440.593l5.537 5.537-17.403 17.403-5.538-5.537 17.404-17.403z"/><path d="M324.769 446.13l5.538-5.537 17.403 17.403-5.537 5.537-17.404-17.403z"/></g><mask id="C" width="76" height="75" x="373" y="377" mask-type="alpha" maskUnits="userSpaceOnUse"><path fill="#C4C4C4" d="M373.095 377.045h74.954v74.954h-74.954z"/></mask><g fill="#386339" mask="url(#C)"><path d="M379.091 403.115l5.537 5.538-17.403 17.403-5.538-5.537 17.404-17.404z"/><path d="M361.687 408.653l5.538-5.538 17.403 17.404-5.537 5.537-17.404-17.403zM454.045 403.115l5.538 5.538-17.403 17.403-5.538-5.537 17.403-17.404z"/><path d="M436.642 408.653l5.538-5.538 17.403 17.404-5.538 5.537-17.403-17.403zM416.568 365.638l5.538 5.538-17.404 17.403-5.537-5.538 17.403-17.403z"/><path d="M399.165 371.176l5.537-5.538 17.404 17.403-5.538 5.538-17.403-17.403zM416.568 440.593l5.538 5.537-17.404 17.403-5.537-5.537 17.403-17.403z"/><path d="M399.165 446.13l5.537-5.537 17.404 17.403-5.538 5.537-17.403-17.403z"/></g><mask id="D" width="76" height="75" x="447" y="377" mask-type="alpha" maskUnits="userSpaceOnUse"><path fill="#C4C4C4" d="M447.49 377.045h74.954v74.954H447.49z"/></mask><g fill="#386339" mask="url(#D)"><path d="M453.486 403.115l5.537 5.538-17.403 17.403-5.537-5.537 17.403-17.404z"/><path d="M436.083 408.653l5.537-5.538 17.403 17.404-5.537 5.537-17.403-17.403zM528.441 403.115l5.537 5.538-17.403 17.403-5.538-5.537 17.404-17.404z"/><path d="M511.037 408.653l5.538-5.538 17.403 17.404-5.537 5.537-17.404-17.403zM490.963 365.638l5.538 5.538-17.404 17.403-5.537-5.538 17.403-17.403z"/><path d="M473.56 371.176l5.537-5.538 17.404 17.403-5.538 5.538-17.403-17.403zM490.963 440.593l5.538 5.537-17.404 17.403-5.537-5.537 17.403-17.403z"/><path d="M473.56 446.13l5.537-5.537 17.404 17.403-5.538 5.537-17.403-17.403z"/></g><mask id="E" width="76" height="75" x="522" y="377" mask-type="alpha" maskUnits="userSpaceOnUse"><path fill="#C4C4C4" d="M522.444 377.045h74.954v74.954h-74.954z"/></mask><g fill="#386339" mask="url(#E)"><path d="M528.441 403.115l5.537 5.538-17.403 17.403-5.538-5.537 17.404-17.404z"/><path d="M511.037 408.653l5.538-5.538 17.403 17.404-5.537 5.537-17.404-17.403zM603.396 403.115l5.537 5.538-17.403 17.403-5.538-5.537 17.404-17.404z"/><path d="M585.992 408.653l5.538-5.538 17.403 17.404-5.537 5.537-17.404-17.403zM565.918 365.638l5.537 5.538-17.403 17.403-5.537-5.538 17.403-17.403z"/><path d="M548.515 371.176l5.537-5.538 17.403 17.403-5.537 5.538-17.403-17.403zM565.918 440.593l5.537 5.537-17.403 17.403-5.537-5.537 17.403-17.403z"/><path d="M548.515 446.13l5.537-5.537 17.403 17.403-5.537 5.537-17.403-17.403z"/></g><mask id="F" width="76" height="75" x="597" y="377" mask-type="alpha" maskUnits="userSpaceOnUse"><path fill="#C4C4C4" d="M597.399 377.045h74.954v74.954h-74.954z"/></mask><g fill="#386339" mask="url(#F)"><path d="M603.395 403.115l5.537 5.538-17.403 17.403-5.537-5.537 17.403-17.404z"/><path d="M585.992 408.653l5.537-5.538 17.403 17.404-5.537 5.537-17.403-17.403zM678.349 403.115l5.538 5.538-17.403 17.403-5.538-5.537 17.403-17.404z"/><path d="M660.946 408.653l5.538-5.538 17.403 17.404-5.538 5.537-17.403-17.403zM640.872 365.638l5.538 5.538-17.403 17.403-5.538-5.538 17.403-17.403z"/><path d="M623.469 371.176l5.538-5.538 17.403 17.403-5.538 5.538-17.403-17.403zM640.872 440.593l5.538 5.537-17.403 17.403-5.538-5.537 17.403-17.403z"/><path d="M623.469 446.13l5.538-5.537 17.403 17.403-5.538 5.537-17.403-17.403z"/></g><mask id="G" width="76" height="75" x="672" y="377" mask-type="alpha" maskUnits="userSpaceOnUse"><path fill="#C4C4C4" d="M672.354 377.045h74.954v74.954h-74.954z"/></mask><g fill="#386339" mask="url(#G)"><path d="M678.349 403.115l5.538 5.538-17.403 17.403-5.538-5.537 17.403-17.404z"/><path d="M660.946 408.653l5.538-5.538 17.403 17.404-5.538 5.537-17.403-17.403zM753.304 403.115l5.537 5.538-17.403 17.403-5.537-5.537 17.403-17.404z"/><path d="M735.901 408.653l5.537-5.538 17.403 17.404-5.537 5.537-17.403-17.403zM715.827 365.638l5.537 5.538-17.403 17.403-5.537-5.538 17.403-17.403z"/><path d="M698.424 371.176l5.537-5.538 17.403 17.403-5.537 5.538-17.403-17.403zM715.827 440.593l5.537 5.537-17.403 17.403-5.537-5.537 17.403-17.403z"/><path d="M698.424 446.13l5.537-5.537 17.403 17.403-5.537 5.537-17.403-17.403z"/></g><mask id="H" width="76" height="75" x="746" y="377" mask-type="alpha" maskUnits="userSpaceOnUse"><path fill="#C4C4C4" d="M746.749 377.045h74.954v74.954h-74.954z"/></mask><g fill="#386339" mask="url(#H)"><path d="M752.745 403.115l5.537 5.538-17.403 17.403-5.538-5.537 17.404-17.404z"/><path d="M735.341 408.653l5.538-5.538 17.403 17.404-5.537 5.537-17.404-17.403zM827.699 403.115l5.537 5.538-17.403 17.403-5.537-5.537 17.403-17.404z"/><path d="M810.296 408.653l5.537-5.538 17.403 17.404-5.537 5.537-17.403-17.403zM790.222 365.638l5.537 5.538-17.403 17.403-5.537-5.538 17.403-17.403z"/><path d="M772.819 371.176l5.537-5.538 17.403 17.403-5.537 5.538-17.403-17.403zM790.222 440.593l5.537 5.537-17.403 17.403-5.537-5.537 17.403-17.403z"/><path d="M772.819 446.13l5.537-5.537 17.403 17.403-5.537 5.537-17.403-17.403z"/></g><mask id="I" width="75" height="76" x="0" y="152" mask-type="alpha" maskUnits="userSpaceOnUse"><path fill="#C4C4C4" d="M0 152.182h74.954v74.954H0z"/></mask><g fill="#386339" mask="url(#I)"><path d="M5.995 178.252l5.538 5.537-17.403 17.403-5.538-5.537 17.403-17.403z"/><path d="M-11.408 183.789l5.538-5.537 17.403 17.403-5.538 5.537-17.403-17.403zM80.95 178.252l5.537 5.537-17.403 17.403-5.537-5.537 17.403-17.403z"/><path d="M63.547 183.789l5.537-5.537 17.403 17.403-5.537 5.537-17.403-17.403zM43.473 140.775l5.537 5.537-17.403 17.403-5.537-5.537 17.403-17.403z"/><path d="M26.07 146.312l5.537-5.537 17.403 17.403-5.537 5.537-17.403-17.403zM43.473 215.729l5.537 5.537-17.403 17.404-5.537-5.538 17.403-17.403z"/><path d="M26.07 221.266l5.537-5.537 17.403 17.403-5.537 5.538-17.403-17.404z"/></g><mask id="J" width="76" height="76" x="73" y="152" mask-type="alpha" maskUnits="userSpaceOnUse"><path fill="#C4C4C4" d="M73.836 152.182h74.954v74.954H73.836z"/></mask><g fill="#386339" mask="url(#J)"><path d="M79.832 178.252l5.537 5.537-17.403 17.403-5.538-5.537 17.404-17.403z"/><path d="M62.428 183.789l5.538-5.537 17.403 17.403-5.537 5.537-17.404-17.403zM154.786 178.252l5.538 5.537-17.404 17.403-5.537-5.537 17.403-17.403z"/><path d="M137.383 183.789l5.537-5.537 17.404 17.403-5.538 5.537-17.403-17.403zM117.309 140.775l5.537 5.537-17.403 17.403-5.537-5.537 17.403-17.403z"/><path d="M99.906 146.312l5.537-5.537 17.403 17.403-5.537 5.537-17.403-17.403zM117.309 215.729l5.537 5.537-17.403 17.404-5.537-5.538 17.403-17.403z"/><path d="M99.906 221.266l5.537-5.537 17.403 17.403-5.537 5.538-17.403-17.404z"/></g><mask id="K" width="76" height="76" x="148" y="152" mask-type="alpha" maskUnits="userSpaceOnUse"><path fill="#C4C4C4" d="M148.79 152.182h74.954v74.954H148.79z"/></mask><g fill="#386339" mask="url(#K)"><path d="M154.786 178.252l5.538 5.537-17.404 17.403-5.537-5.537 17.403-17.403z"/><path d="M137.383 183.789l5.537-5.537 17.404 17.403-5.538 5.537-17.403-17.403zM229.741 178.252l5.537 5.537-17.403 17.403-5.537-5.537 17.403-17.403z"/><path d="M212.338 183.789l5.537-5.537 17.403 17.403-5.537 5.537-17.403-17.403zM192.263 140.775l5.538 5.537-17.403 17.403-5.538-5.537 17.403-17.403z"/><path d="M174.86 146.312l5.538-5.537 17.403 17.403-5.537 5.537-17.404-17.403zM192.263 215.729l5.538 5.537-17.403 17.404-5.538-5.538 17.403-17.403z"/><path d="M174.86 221.266l5.538-5.537 17.403 17.403-5.537 5.538-17.404-17.404z"/></g><mask id="L" width="76" height="76" x="223" y="152" mask-type="alpha" maskUnits="userSpaceOnUse"><path fill="#C4C4C4" d="M223.745 152.182h74.954v74.954h-74.954z"/></mask><g fill="#386339" mask="url(#L)"><path d="M229.741 178.252l5.537 5.537-17.403 17.403-5.538-5.537 17.404-17.403z"/><path d="M212.337 183.789l5.538-5.537 17.403 17.403-5.537 5.537-17.404-17.403zM304.695 178.252l5.538 5.537-17.404 17.403-5.537-5.537 17.403-17.403z"/><path d="M287.292 183.789l5.537-5.537 17.404 17.403-5.538 5.537-17.403-17.403zM267.218 140.775l5.537 5.537-17.403 17.403-5.537-5.537 17.403-17.403z"/><path d="M249.815 146.312l5.537-5.537 17.403 17.403-5.537 5.537-17.403-17.403zM267.218 215.729l5.537 5.537-17.403 17.404-5.537-5.538 17.403-17.403z"/><path d="M249.815 221.266l5.537-5.537 17.403 17.403-5.537 5.538-17.403-17.404z"/></g><mask id="M" width="76" height="76" x="298" y="152" mask-type="alpha" maskUnits="userSpaceOnUse"><path fill="#C4C4C4" d="M298.7 152.182h74.954v74.954H298.7z"/></mask><g fill="#386339" mask="url(#M)"><path d="M304.695 178.252l5.538 5.537-17.404 17.403-5.537-5.537 17.403-17.403z"/><path d="M287.292 183.789l5.537-5.537 17.404 17.403-5.538 5.537-17.403-17.403zM379.649 178.252l5.538 5.537-17.403 17.403-5.538-5.537 17.403-17.403z"/><path d="M362.246 183.789l5.538-5.537 17.403 17.403-5.538 5.537-17.403-17.403zM342.173 140.775l5.537 5.537-17.403 17.403-5.538-5.537 17.404-17.403z"/><path d="M324.769 146.312l5.538-5.537 17.403 17.403-5.537 5.537-17.404-17.403zM342.173 215.729l5.537 5.537-17.403 17.404-5.538-5.538 17.404-17.403z"/><path d="M324.769 221.266l5.538-5.537 17.403 17.403-5.537 5.538-17.404-17.404z"/></g><mask id="N" width="76" height="76" x="373" y="152" mask-type="alpha" maskUnits="userSpaceOnUse"><path fill="#C4C4C4" d="M373.095 152.182h74.954v74.954h-74.954z"/></mask><g fill="#386339" mask="url(#N)"><path d="M379.091 178.252l5.537 5.537-17.403 17.403-5.538-5.537 17.404-17.403z"/><path d="M361.687 183.789l5.538-5.537 17.403 17.403-5.537 5.537-17.404-17.403zM454.045 178.252l5.538 5.537-17.403 17.403-5.538-5.537 17.403-17.403z"/><path d="M436.642 183.789l5.538-5.537 17.403 17.403-5.538 5.537-17.403-17.403zM416.568 140.775l5.538 5.537-17.404 17.403-5.537-5.537 17.403-17.403z"/><path d="M399.165 146.312l5.537-5.537 17.404 17.403-5.538 5.537-17.403-17.403zM416.568 215.729l5.538 5.537-17.404 17.404-5.537-5.538 17.403-17.403z"/><path d="M399.165 221.266l5.537-5.537 17.404 17.403-5.538 5.538-17.403-17.404z"/></g><mask id="O" width="76" height="76" x="447" y="152" mask-type="alpha" maskUnits="userSpaceOnUse"><path fill="#C4C4C4" d="M447.49 152.182h74.954v74.954H447.49z"/></mask><g fill="#386339" mask="url(#O)"><path d="M453.486 178.252l5.537 5.537-17.403 17.403-5.537-5.537 17.403-17.403z"/><path d="M436.083 183.789l5.537-5.537 17.403 17.403-5.537 5.537-17.403-17.403zM528.441 178.252l5.537 5.537-17.403 17.403-5.538-5.537 17.404-17.403z"/><path d="M511.037 183.789l5.538-5.537 17.403 17.403-5.537 5.537-17.404-17.403zM490.963 140.775l5.538 5.537-17.404 17.403-5.537-5.537 17.403-17.403z"/><path d="M473.56 146.312l5.537-5.537 17.404 17.403-5.538 5.537-17.403-17.403zM490.963 215.729l5.538 5.537-17.404 17.404-5.537-5.538 17.403-17.403z"/><path d="M473.56 221.266l5.537-5.537 17.404 17.403-5.538 5.538-17.403-17.404z"/></g><mask id="P" width="76" height="76" x="522" y="152" mask-type="alpha" maskUnits="userSpaceOnUse"><path fill="#C4C4C4" d="M522.444 152.182h74.954v74.954h-74.954z"/></mask><g fill="#386339" mask="url(#P)"><path d="M528.441 178.252l5.537 5.537-17.403 17.403-5.538-5.537 17.404-17.403z"/><path d="M511.037 183.789l5.538-5.537 17.403 17.403-5.537 5.537-17.404-17.403zM603.396 178.252l5.537 5.537-17.403 17.403-5.538-5.537 17.404-17.403z"/><path d="M585.992 183.789l5.538-5.537 17.403 17.403-5.537 5.537-17.404-17.403zM565.918 140.775l5.537 5.537-17.403 17.403-5.537-5.537 17.403-17.403z"/><path d="M548.515 146.312l5.537-5.537 17.403 17.403-5.537 5.537-17.403-17.403zM565.918 215.729l5.537 5.537-17.403 17.404-5.537-5.538 17.403-17.403z"/><path d="M548.515 221.266l5.537-5.537 17.403 17.403-5.537 5.538-17.403-17.404z"/></g><mask id="Q" width="76" height="76" x="597" y="152" mask-type="alpha" maskUnits="userSpaceOnUse"><path fill="#C4C4C4" d="M597.399 152.182h74.954v74.954h-74.954z"/></mask><g fill="#386339" mask="url(#Q)"><path d="M603.395 178.252l5.537 5.537-17.403 17.403-5.537-5.537 17.403-17.403z"/><path d="M585.992 183.789l5.537-5.537 17.403 17.403-5.537 5.537-17.403-17.403zM678.349 178.252l5.538 5.537-17.403 17.403-5.538-5.537 17.403-17.403z"/><path d="M660.946 183.789l5.538-5.537 17.403 17.403-5.538 5.537-17.403-17.403zM640.872 140.775l5.538 5.537-17.403 17.403-5.538-5.537 17.403-17.403z"/><path d="M623.469 146.312l5.538-5.537 17.403 17.403-5.538 5.537-17.403-17.403zM640.872 215.729l5.538 5.537-17.403 17.404-5.538-5.538 17.403-17.403z"/><path d="M623.469 221.266l5.538-5.537 17.403 17.403-5.538 5.538-17.403-17.404z"/></g><mask id="R" width="76" height="76" x="672" y="152" mask-type="alpha" maskUnits="userSpaceOnUse"><path fill="#C4C4C4" d="M672.354 152.182h74.954v74.954h-74.954z"/></mask><g fill="#386339" mask="url(#R)"><path d="M678.349 178.252l5.538 5.537-17.403 17.403-5.538-5.537 17.403-17.403z"/><path d="M660.946 183.789l5.538-5.537 17.403 17.403-5.538 5.537-17.403-17.403zM753.304 178.252l5.537 5.537-17.403 17.403-5.537-5.537 17.403-17.403z"/><path d="M735.901 183.789l5.537-5.537 17.403 17.403-5.537 5.537-17.403-17.403zM715.827 140.775l5.537 5.537-17.403 17.403-5.537-5.537 17.403-17.403z"/><path d="M698.424 146.312l5.537-5.537 17.403 17.403-5.537 5.537-17.403-17.403zM715.827 215.729l5.537 5.537-17.403 17.404-5.537-5.538 17.403-17.403z"/><path d="M698.424 221.266l5.537-5.537 17.403 17.403-5.537 5.538-17.403-17.404z"/></g><mask id="S" width="76" height="76" x="746" y="152" mask-type="alpha" maskUnits="userSpaceOnUse"><path fill="#C4C4C4" d="M746.749 152.182h74.954v74.954h-74.954z"/></mask><g fill="#386339" mask="url(#S)"><path d="M752.745 178.252l5.537 5.537-17.403 17.403-5.538-5.537 17.404-17.403z"/><path d="M735.341 183.789l5.538-5.537 17.403 17.403-5.537 5.537-17.404-17.403zM827.699 178.252l5.537 5.537-17.403 17.403-5.537-5.537 17.403-17.403z"/><path d="M810.296 183.789l5.537-5.537 17.403 17.403-5.537 5.537-17.403-17.403zM790.222 140.775l5.537 5.537-17.403 17.403-5.537-5.537 17.403-17.403z"/><path d="M772.819 146.312l5.537-5.537 17.403 17.403-5.537 5.537-17.403-17.403zM790.222 215.729l5.537 5.537-17.403 17.404-5.537-5.538 17.403-17.403z"/><path d="M772.819 221.266l5.537-5.537 17.403 17.403-5.537 5.538-17.403-17.404z"/></g><mask id="T" width="76" height="76" x="821" y="227" mask-type="alpha" maskUnits="userSpaceOnUse"><path fill="#C4C4C4" d="M821.409 227.136h74.954v74.954h-74.954z"/></mask><g fill="#386339" mask="url(#T)"><path d="M827.405 253.206l5.538 5.538-17.404 17.403-5.537-5.537 17.403-17.404z"/><path d="M810.002 258.744l5.537-5.538 17.404 17.404-5.538 5.537-17.403-17.403zM902.36 253.206l5.537 5.538-17.403 17.403-5.537-5.537 17.403-17.404z"/><path d="M884.957 258.744l5.537-5.538 17.403 17.404-5.537 5.537-17.403-17.403zM864.882 215.729l5.538 5.537-17.403 17.404-5.538-5.538 17.403-17.403z"/><path d="M847.479 221.266l5.538-5.537 17.403 17.403-5.538 5.538-17.403-17.404zM864.882 290.684l5.538 5.537-17.403 17.403-5.538-5.537 17.403-17.403z"/><path d="M847.479 296.221l5.538-5.537 17.403 17.403-5.538 5.537-17.403-17.403z"/></g><mask id="U" width="76" height="76" x="821" y="302" mask-type="alpha" maskUnits="userSpaceOnUse"><path fill="#C4C4C4" d="M821.409 302.091h74.954v74.954h-74.954z"/></mask><g fill="#386339" mask="url(#U)"><path d="M827.405 328.161l5.538 5.537-17.404 17.404-5.537-5.538 17.403-17.403z"/><path d="M810.002 333.698l5.537-5.537 17.404 17.403-5.538 5.538-17.403-17.404zM902.36 328.161l5.537 5.537-17.403 17.404-5.537-5.538 17.403-17.403z"/><path d="M884.957 333.698l5.537-5.537 17.403 17.403-5.537 5.538-17.403-17.404zM864.882 290.684l5.538 5.537-17.403 17.403-5.538-5.537 17.403-17.403z"/><path d="M847.479 296.221l5.538-5.537 17.403 17.403-5.538 5.537-17.403-17.403zM864.882 365.638l5.538 5.538-17.403 17.403-5.538-5.538 17.403-17.403z"/><path d="M847.479 371.176l5.538-5.538 17.403 17.403-5.538 5.538-17.403-17.403z"/></g><mask id="V" width="76" height="75" x="821" y="377" mask-type="alpha" maskUnits="userSpaceOnUse"><path fill="#C4C4C4" d="M821.409 377.045h74.954v74.954h-74.954z"/></mask><g fill="#386339" mask="url(#V)"><path d="M827.405 403.115l5.538 5.538-17.404 17.403-5.537-5.537 17.403-17.404z"/><path d="M810.002 408.653l5.537-5.538 17.404 17.404-5.538 5.537-17.403-17.403zM902.36 403.115l5.537 5.538-17.403 17.403-5.537-5.537 17.403-17.404z"/><path d="M884.957 408.653l5.537-5.538 17.403 17.404-5.537 5.537-17.403-17.403zM864.882 365.638l5.538 5.538-17.403 17.403-5.538-5.538 17.403-17.403z"/><path d="M847.479 371.176l5.538-5.538 17.403 17.403-5.538 5.538-17.403-17.403zM864.882 440.593l5.538 5.537-17.403 17.403-5.538-5.537 17.403-17.403z"/><path d="M847.479 446.13l5.538-5.537 17.403 17.403-5.538 5.537-17.403-17.403z"/></g><mask id="W" width="76" height="76" x="821" y="152" mask-type="alpha" maskUnits="userSpaceOnUse"><path fill="#C4C4C4" d="M821.409 152.182h74.954v74.954h-74.954z"/></mask><g fill="#386339" mask="url(#W)"><path d="M827.405 178.252l5.538 5.537-17.404 17.403-5.537-5.537 17.403-17.403z"/><path d="M810.002 183.789l5.537-5.537 17.404 17.403-5.538 5.537-17.403-17.403zM902.36 178.252l5.537 5.537-17.403 17.403-5.537-5.537 17.403-17.403z"/><path d="M884.957 183.789l5.537-5.537 17.403 17.403-5.537 5.537-17.403-17.403zM864.882 140.775l5.538 5.537-17.403 17.403-5.538-5.537 17.403-17.403z"/><path d="M847.479 146.312l5.538-5.537 17.403 17.403-5.538 5.537-17.403-17.403zM864.882 215.729l5.538 5.537-17.403 17.404-5.538-5.538 17.403-17.403z"/><path d="M847.479 221.266l5.538-5.537 17.403 17.403-5.538 5.538-17.403-17.404z"/></g><mask id="X" width="76" height="76" x="896" y="227" mask-type="alpha" maskUnits="userSpaceOnUse"><path fill="#C4C4C4" d="M896.364 227.136h74.954v74.954h-74.954z"/></mask><g fill="#386339" mask="url(#X)"><path d="M902.36 253.206l5.537 5.538-17.403 17.403-5.538-5.537 17.404-17.404z"/><path d="M884.956 258.744l5.538-5.538 17.403 17.404-5.537 5.537-17.404-17.403zM977.314 253.206l5.538 5.538-17.404 17.403-5.537-5.537 17.403-17.404z"/><path d="M959.911 258.744l5.537-5.538 17.404 17.404-5.538 5.537-17.403-17.403zM939.837 215.729l5.537 5.537-17.403 17.404-5.537-5.538 17.403-17.403z"/><path d="M922.434 221.266l5.537-5.537 17.403 17.403-5.537 5.538-17.403-17.404zM939.837 290.684l5.537 5.537-17.403 17.403-5.537-5.537 17.403-17.403z"/><path d="M922.434 296.221l5.537-5.537 17.403 17.403-5.537 5.537-17.403-17.403z"/></g><mask id="Y" width="76" height="76" x="896" y="302" mask-type="alpha" maskUnits="userSpaceOnUse"><path fill="#C4C4C4" d="M896.364 302.091h74.954v74.954h-74.954z"/></mask><g fill="#386339" mask="url(#Y)"><path d="M902.36 328.161l5.537 5.537-17.403 17.404-5.538-5.538 17.404-17.403z"/><path d="M884.956 333.698l5.538-5.537 17.403 17.403-5.537 5.538-17.404-17.404zM977.314 328.161l5.538 5.537-17.404 17.404-5.537-5.538 17.403-17.403z"/><path d="M959.911 333.698l5.537-5.537 17.404 17.403-5.538 5.538-17.403-17.404zM939.837 290.684l5.537 5.537-17.403 17.403-5.537-5.537 17.403-17.403z"/><path d="M922.434 296.221l5.537-5.537 17.403 17.403-5.537 5.537-17.403-17.403zM939.837 365.638l5.537 5.538-17.403 17.403-5.537-5.538 17.403-17.403z"/><path d="M922.434 371.176l5.537-5.538 17.403 17.403-5.537 5.538-17.403-17.403z"/></g><mask id="Z" width="76" height="75" x="896" y="377" mask-type="alpha" maskUnits="userSpaceOnUse"><path fill="#C4C4C4" d="M896.364 377.045h74.954v74.954h-74.954z"/></mask><g fill="#386339" mask="url(#Z)"><path d="M902.36 403.115l5.537 5.538-17.403 17.403-5.538-5.537 17.404-17.404z"/><path d="M884.956 408.653l5.538-5.538 17.403 17.404-5.537 5.537-17.404-17.403zM977.314 403.115l5.538 5.538-17.404 17.403-5.537-5.537 17.403-17.404z"/><path d="M959.911 408.653l5.537-5.538 17.404 17.404-5.538 5.537-17.403-17.403zM939.837 365.638l5.537 5.538-17.403 17.403-5.537-5.538 17.403-17.403z"/><path d="M922.434 371.176l5.537-5.538 17.403 17.403-5.537 5.538-17.403-17.403zM939.837 440.593l5.537 5.537-17.403 17.403-5.537-5.537 17.403-17.403z"/><path d="M922.434 446.13l5.537-5.537 17.403 17.403-5.537 5.537-17.403-17.403z"/></g><mask id="aa" width="76" height="76" x="896" y="152" mask-type="alpha" maskUnits="userSpaceOnUse"><path fill="#C4C4C4" d="M896.364 152.182h74.954v74.954h-74.954z"/></mask><g fill="#386339" mask="url(#aa)"><path d="M902.36 178.252l5.537 5.537-17.403 17.403-5.538-5.537 17.404-17.403z"/><path d="M884.956 183.789l5.538-5.537 17.403 17.403-5.537 5.537-17.404-17.403zM977.314 178.252l5.538 5.537-17.404 17.403-5.537-5.537 17.403-17.403z"/><path d="M959.911 183.789l5.537-5.537 17.404 17.403-5.538 5.537-17.403-17.403zM939.837 140.775l5.537 5.537-17.403 17.403-5.537-5.537 17.403-17.403z"/><path d="M922.434 146.312l5.537-5.537 17.403 17.403-5.537 5.537-17.403-17.403zM939.837 215.729l5.537 5.537-17.403 17.404-5.537-5.538 17.403-17.403z"/><path d="M922.434 221.266l5.537-5.537 17.403 17.403-5.537 5.538-17.403-17.404z"/></g><mask id="ab" width="76" height="76" x="970" y="227" mask-type="alpha" maskUnits="userSpaceOnUse"><path fill="#C4C4C4" d="M970.545 227.136h74.954v74.954h-74.954z"/></mask><g fill="#386339" mask="url(#ab)"><path d="M976.542 253.206l5.537 5.538-17.403 17.403-5.537-5.537 17.403-17.404z"/><path d="M959.139 258.744l5.537-5.538 17.403 17.404-5.537 5.537-17.403-17.403zM1051.5 253.206l5.53 5.538-17.4 17.403-5.54-5.537 17.41-17.404z"/><path d="M1034.09 258.744l5.54-5.538 17.4 17.404-5.53 5.537-17.41-17.403zM1014.02 215.729l5.54 5.537-17.41 17.404-5.534-5.538 17.404-17.403z"/><path d="M996.616 221.266l5.534-5.537 17.41 17.403-5.54 5.538-17.404-17.404zM1014.02 290.684l5.54 5.537-17.41 17.403-5.534-5.537 17.404-17.403z"/><path d="M996.616 296.221l5.534-5.537 17.41 17.403-5.54 5.537-17.404-17.403z"/></g><mask id="ac" width="76" height="76" x="970" y="302" mask-type="alpha" maskUnits="userSpaceOnUse"><path fill="#C4C4C4" d="M970.545 302.091h74.954v74.954h-74.954z"/></mask><g fill="#386339" mask="url(#ac)"><path d="M976.542 328.161l5.537 5.537-17.403 17.404-5.537-5.538 17.403-17.403z"/><path d="M959.139 333.698l5.537-5.537 17.403 17.403-5.537 5.538-17.403-17.404zM1051.5 328.161l5.53 5.537-17.4 17.404-5.54-5.538 17.41-17.403z"/><path d="M1034.09 333.698l5.54-5.537 17.4 17.403-5.53 5.538-17.41-17.404zM1014.02 290.684l5.54 5.537-17.41 17.403-5.534-5.537 17.404-17.403z"/><path d="M996.616 296.221l5.534-5.537 17.41 17.403-5.54 5.537-17.404-17.403zM1014.02 365.638l5.54 5.538-17.41 17.403-5.534-5.538 17.404-17.403z"/><path d="M996.616 371.176l5.534-5.538 17.41 17.403-5.54 5.538-17.404-17.403z"/></g><mask id="ad" width="76" height="75" x="970" y="377" mask-type="alpha" maskUnits="userSpaceOnUse"><path fill="#C4C4C4" d="M970.545 377.045h74.954v74.954h-74.954z"/></mask><g fill="#386339" mask="url(#ad)"><path d="M976.542 403.115l5.537 5.538-17.403 17.403-5.537-5.537 17.403-17.404z"/><path d="M959.139 408.653l5.537-5.538 17.403 17.404-5.537 5.537-17.403-17.403zM1051.5 403.115l5.53 5.538-17.4 17.403-5.54-5.537 17.41-17.404z"/><path d="M1034.09 408.653l5.54-5.538 17.4 17.404-5.53 5.537-17.41-17.403zM1014.02 365.638l5.54 5.538-17.41 17.403-5.534-5.538 17.404-17.403z"/><path d="M996.616 371.176l5.534-5.538 17.41 17.403-5.54 5.538-17.404-17.403zM1014.02 440.593l5.54 5.537-17.41 17.403-5.534-5.537 17.404-17.403z"/><path d="M996.616 446.13l5.534-5.537 17.41 17.403-5.54 5.537-17.404-17.403z"/></g><mask id="ae" width="76" height="76" x="970" y="152" mask-type="alpha" maskUnits="userSpaceOnUse"><path fill="#C4C4C4" d="M970.545 152.182h74.954v74.954h-74.954z"/></mask><g fill="#386339" mask="url(#ae)"><path d="M976.542 178.252l5.537 5.537-17.403 17.403-5.537-5.537 17.403-17.403z"/><path d="M959.139 183.789l5.537-5.537 17.403 17.403-5.537 5.537-17.403-17.403zM1051.5 178.252l5.53 5.537-17.4 17.403-5.54-5.537 17.41-17.403z"/><path d="M1034.09 183.789l5.54-5.537 17.4 17.403-5.53 5.537-17.41-17.403zM1014.02 140.775l5.54 5.537-17.41 17.403-5.534-5.537 17.404-17.403z"/><path d="M996.616 146.312l5.534-5.537 17.41 17.403-5.54 5.537-17.404-17.403zM1014.02 215.729l5.54 5.537-17.41 17.404-5.534-5.538 17.404-17.403z"/><path d="M996.616 221.266l5.534-5.537 17.41 17.403-5.54 5.538-17.404-17.404z"/></g><mask id="af" width="76" height="76" x="1045" y="227" mask-type="alpha" maskUnits="userSpaceOnUse"><path fill="#C4C4C4" d="M1045.5 227.136h74.954v74.954H1045.5z"/></mask><g fill="#386339" mask="url(#af)"><path d="M1051.5 253.206l5.53 5.538-17.4 17.403-5.54-5.537 17.41-17.404z"/><path d="M1034.09 258.744l5.54-5.538 17.4 17.404-5.53 5.537-17.41-17.403zM1126.45 253.206l5.54 5.538-17.4 17.403-5.54-5.537 17.4-17.404z"/><path d="M1109.05 258.744l5.54-5.538 17.4 17.404-5.54 5.537-17.4-17.403zM1088.97 215.729l5.54 5.537-17.4 17.404-5.54-5.538 17.4-17.403z"/><path d="M1071.57 221.266l5.54-5.537 17.4 17.403-5.54 5.538-17.4-17.404zM1088.97 290.684l5.54 5.537-17.4 17.403-5.54-5.537 17.4-17.403z"/><path d="M1071.57 296.221l5.54-5.537 17.4 17.403-5.54 5.537-17.4-17.403z"/></g><mask id="ag" width="76" height="76" x="1045" y="302" mask-type="alpha" maskUnits="userSpaceOnUse"><path fill="#C4C4C4" d="M1045.5 302.091h74.954v74.954H1045.5z"/></mask><g fill="#386339" mask="url(#ag)"><path d="M1051.5 328.161l5.53 5.537-17.4 17.404-5.54-5.538 17.41-17.403z"/><path d="M1034.09 333.698l5.54-5.537 17.4 17.403-5.53 5.538-17.41-17.404zM1126.45 328.161l5.54 5.537-17.4 17.404-5.54-5.538 17.4-17.403z"/><path d="M1109.05 333.698l5.54-5.537 17.4 17.403-5.54 5.538-17.4-17.404zM1088.97 290.684l5.54 5.537-17.4 17.403-5.54-5.537 17.4-17.403z"/><path d="M1071.57 296.221l5.54-5.537 17.4 17.403-5.54 5.537-17.4-17.403zM1088.97 365.638l5.54 5.538-17.4 17.403-5.54-5.538 17.4-17.403z"/><path d="M1071.57 371.176l5.54-5.538 17.4 17.403-5.54 5.538-17.4-17.403z"/></g><mask id="ah" width="76" height="75" x="1045" y="377" mask-type="alpha" maskUnits="userSpaceOnUse"><path fill="#C4C4C4" d="M1045.5 377.045h74.954v74.954H1045.5z"/></mask><g fill="#386339" mask="url(#ah)"><path d="M1051.5 403.115l5.53 5.538-17.4 17.403-5.54-5.537 17.41-17.404z"/><path d="M1034.09 408.653l5.54-5.538 17.4 17.404-5.53 5.537-17.41-17.403zM1126.45 403.115l5.54 5.538-17.4 17.403-5.54-5.537 17.4-17.404z"/><path d="M1109.05 408.653l5.54-5.538 17.4 17.404-5.54 5.537-17.4-17.403zM1088.97 365.638l5.54 5.538-17.4 17.403-5.54-5.538 17.4-17.403z"/><path d="M1071.57 371.176l5.54-5.538 17.4 17.403-5.54 5.538-17.4-17.403zM1088.97 440.593l5.54 5.537-17.4 17.403-5.54-5.537 17.4-17.403z"/><path d="M1071.57 446.13l5.54-5.537 17.4 17.403-5.54 5.537-17.4-17.403z"/></g><mask id="ai" width="76" height="76" x="1045" y="152" mask-type="alpha" maskUnits="userSpaceOnUse"><path fill="#C4C4C4" d="M1045.5 152.182h74.954v74.954H1045.5z"/></mask><g fill="#386339" mask="url(#ai)"><path d="M1051.5 178.252l5.53 5.537-17.4 17.403-5.54-5.537 17.41-17.403z"/><path d="M1034.09 183.789l5.54-5.537 17.4 17.403-5.53 5.537-17.41-17.403zM1126.45 178.252l5.54 5.537-17.4 17.403-5.54-5.537 17.4-17.403z"/><path d="M1109.05 183.789l5.54-5.537 17.4 17.403-5.54 5.537-17.4-17.403zM1088.97 140.775l5.54 5.537-17.4 17.403-5.54-5.537 17.4-17.403z"/><path d="M1071.57 146.312l5.54-5.537 17.4 17.403-5.54 5.537-17.4-17.403zM1088.97 215.729l5.54 5.537-17.4 17.404-5.54-5.538 17.4-17.403z"/><path d="M1071.57 221.266l5.54-5.537 17.4 17.403-5.54 5.538-17.4-17.404z"/></g><mask id="aj" width="75" height="75" x="0" y="78" mask-type="alpha" maskUnits="userSpaceOnUse"><path fill="#C4C4C4" d="M0 78h74.954v74.954H0z"/></mask><g fill="#386339" mask="url(#aj)"><path d="M5.995 104.07l5.538 5.537-17.403 17.404-5.538-5.538L5.995 104.07z"/><path d="M-11.408 109.607l5.538-5.537 17.403 17.403-5.538 5.538-17.403-17.404zM80.95 104.07l5.537 5.537-17.403 17.404-5.537-5.538L80.95 104.07z"/><path d="M63.547 109.607l5.537-5.537 17.403 17.403-5.537 5.538-17.403-17.404zM43.473 66.593l5.537 5.537-17.403 17.403-5.537-5.537 17.403-17.403z"/><path d="M26.07 72.13l5.537-5.537L49.01 83.996l-5.537 5.537L26.07 72.13zM43.473 141.547l5.537 5.538-17.403 17.403-5.537-5.537 17.403-17.404z"/><path d="M26.07 147.085l5.537-5.538 17.403 17.404-5.537 5.537-17.403-17.403z"/></g><mask id="ak" width="76" height="75" x="73" y="78" mask-type="alpha" maskUnits="userSpaceOnUse"><path fill="#C4C4C4" d="M73.836 78h74.954v74.954H73.836z"/></mask><g fill="#386339" mask="url(#ak)"><path d="M79.832 104.07l5.537 5.537-17.403 17.404-5.538-5.538 17.404-17.403z"/><path d="M62.428 109.607l5.538-5.537 17.403 17.403-5.537 5.538-17.404-17.404zM154.786 104.07l5.538 5.537-17.404 17.404-5.537-5.538 17.403-17.403z"/><path d="M137.383 109.607l5.537-5.537 17.404 17.403-5.538 5.538-17.403-17.404zM117.309 66.593l5.537 5.537-17.403 17.403-5.537-5.537 17.403-17.403z"/><path d="M99.906 72.13l5.537-5.537 17.403 17.403-5.537 5.537L99.906 72.13zM117.309 141.547l5.537 5.538-17.403 17.403-5.537-5.537 17.403-17.404z"/><path d="M99.906 147.085l5.537-5.538 17.403 17.404-5.537 5.537-17.403-17.403z"/></g><mask id="al" width="76" height="75" x="148" y="78" mask-type="alpha" maskUnits="userSpaceOnUse"><path fill="#C4C4C4" d="M148.79 78h74.954v74.954H148.79z"/></mask><g fill="#386339" mask="url(#al)"><path d="M154.786 104.07l5.538 5.537-17.404 17.404-5.537-5.538 17.403-17.403z"/><path d="M137.383 109.607l5.537-5.537 17.404 17.403-5.538 5.538-17.403-17.404zM229.741 104.07l5.537 5.537-17.403 17.404-5.537-5.538 17.403-17.403z"/><path d="M212.338 109.607l5.537-5.537 17.403 17.403-5.537 5.538-17.403-17.404zM192.263 66.593l5.538 5.537-17.403 17.403-5.538-5.537 17.403-17.403z"/><path d="M174.86 72.13l5.538-5.537 17.403 17.403-5.537 5.537L174.86 72.13zM192.263 141.547l5.538 5.538-17.403 17.403-5.538-5.537 17.403-17.404z"/><path d="M174.86 147.085l5.538-5.538 17.403 17.404-5.537 5.537-17.404-17.403z"/></g><mask id="am" width="76" height="75" x="223" y="78" mask-type="alpha" maskUnits="userSpaceOnUse"><path fill="#C4C4C4" d="M223.745 78h74.954v74.954h-74.954z"/></mask><g fill="#386339" mask="url(#am)"><path d="M229.741 104.07l5.537 5.537-17.403 17.404-5.538-5.538 17.404-17.403z"/><path d="M212.337 109.607l5.538-5.537 17.403 17.403-5.537 5.538-17.404-17.404zM304.695 104.07l5.538 5.537-17.404 17.404-5.537-5.538 17.403-17.403z"/><path d="M287.292 109.607l5.537-5.537 17.404 17.403-5.538 5.538-17.403-17.404zM267.218 66.593l5.537 5.537-17.403 17.403-5.537-5.537 17.403-17.403z"/><path d="M249.815 72.13l5.537-5.537 17.403 17.403-5.537 5.537-17.403-17.403zM267.218 141.547l5.537 5.538-17.403 17.403-5.537-5.537 17.403-17.404z"/><path d="M249.815 147.085l5.537-5.538 17.403 17.404-5.537 5.537-17.403-17.403z"/></g><mask id="an" width="76" height="75" x="298" y="78" mask-type="alpha" maskUnits="userSpaceOnUse"><path fill="#C4C4C4" d="M298.7 78h74.954v74.954H298.7z"/></mask><g fill="#386339" mask="url(#an)"><path d="M304.695 104.07l5.538 5.537-17.404 17.404-5.537-5.538 17.403-17.403z"/><path d="M287.292 109.607l5.537-5.537 17.404 17.403-5.538 5.538-17.403-17.404zM379.649 104.07l5.538 5.537-17.403 17.404-5.538-5.538 17.403-17.403z"/><path d="M362.246 109.607l5.538-5.537 17.403 17.403-5.538 5.538-17.403-17.404zM342.173 66.593l5.537 5.537-17.403 17.403-5.538-5.537 17.404-17.403z"/><path d="M324.769 72.13l5.538-5.537 17.403 17.403-5.537 5.537-17.404-17.403zM342.173 141.547l5.537 5.538-17.403 17.403-5.538-5.537 17.404-17.404z"/><path d="M324.769 147.085l5.538-5.538 17.403 17.404-5.537 5.537-17.404-17.403z"/></g><mask id="ao" width="76" height="75" x="373" y="78" mask-type="alpha" maskUnits="userSpaceOnUse"><path fill="#C4C4C4" d="M373.095 78h74.954v74.954h-74.954z"/></mask><g fill="#386339" mask="url(#ao)"><path d="M379.091 104.07l5.537 5.537-17.403 17.404-5.538-5.538 17.404-17.403z"/><path d="M361.687 109.607l5.538-5.537 17.403 17.403-5.537 5.538-17.404-17.404zM454.045 104.07l5.538 5.537-17.403 17.404-5.538-5.538 17.403-17.403z"/><path d="M436.642 109.607l5.538-5.537 17.403 17.403-5.538 5.538-17.403-17.404zM416.568 66.593l5.538 5.537-17.404 17.403-5.537-5.537 17.403-17.403z"/><path d="M399.165 72.13l5.537-5.537 17.404 17.403-5.538 5.537-17.403-17.403zM416.568 141.547l5.538 5.538-17.404 17.403-5.537-5.537 17.403-17.404z"/><path d="M399.165 147.085l5.537-5.538 17.404 17.404-5.538 5.537-17.403-17.403z"/></g><mask id="ap" width="76" height="75" x="447" y="78" mask-type="alpha" maskUnits="userSpaceOnUse"><path fill="#C4C4C4" d="M447.49 78h74.954v74.954H447.49z"/></mask><g fill="#386339" mask="url(#ap)"><path d="M453.486 104.07l5.537 5.537-17.403 17.404-5.537-5.538 17.403-17.403z"/><path d="M436.083 109.607l5.537-5.537 17.403 17.403-5.537 5.538-17.403-17.404zM528.441 104.07l5.537 5.537-17.403 17.404-5.538-5.538 17.404-17.403z"/><path d="M511.037 109.607l5.538-5.537 17.403 17.403-5.537 5.538-17.404-17.404zM490.963 66.593l5.538 5.537-17.404 17.403-5.537-5.537 17.403-17.403z"/><path d="M473.56 72.13l5.537-5.537 17.404 17.403-5.538 5.537L473.56 72.13zM490.963 141.547l5.538 5.538-17.404 17.403-5.537-5.537 17.403-17.404z"/><path d="M473.56 147.085l5.537-5.538 17.404 17.404-5.538 5.537-17.403-17.403z"/></g><mask id="aq" width="76" height="75" x="522" y="78" mask-type="alpha" maskUnits="userSpaceOnUse"><path fill="#C4C4C4" d="M522.444 78h74.954v74.954h-74.954z"/></mask><g fill="#386339" mask="url(#aq)"><path d="M528.441 104.07l5.537 5.537-17.403 17.404-5.538-5.538 17.404-17.403z"/><path d="M511.037 109.607l5.538-5.537 17.403 17.403-5.537 5.538-17.404-17.404zM603.396 104.07l5.537 5.537-17.403 17.404-5.538-5.538 17.404-17.403z"/><path d="M585.992 109.607l5.538-5.537 17.403 17.403-5.537 5.538-17.404-17.404zM565.918 66.593l5.537 5.537-17.403 17.403-5.537-5.537 17.403-17.403z"/><path d="M548.515 72.13l5.537-5.537 17.403 17.403-5.537 5.537-17.403-17.403zM565.918 141.547l5.537 5.538-17.403 17.403-5.537-5.537 17.403-17.404z"/><path d="M548.515 147.085l5.537-5.538 17.403 17.404-5.537 5.537-17.403-17.403z"/></g><mask id="ar" width="76" height="75" x="597" y="78" mask-type="alpha" maskUnits="userSpaceOnUse"><path fill="#C4C4C4" d="M597.399 78h74.954v74.954h-74.954z"/></mask><g fill="#386339" mask="url(#ar)"><path d="M603.395 104.07l5.537 5.537-17.403 17.404-5.537-5.538 17.403-17.403z"/><path d="M585.992 109.607l5.537-5.537 17.403 17.403-5.537 5.538-17.403-17.404zM678.349 104.07l5.538 5.537-17.403 17.404-5.538-5.538 17.403-17.403z"/><path d="M660.946 109.607l5.538-5.537 17.403 17.403-5.538 5.538-17.403-17.404zM640.872 66.593l5.538 5.537-17.403 17.403-5.538-5.537 17.403-17.403z"/><path d="M623.469 72.13l5.538-5.537 17.403 17.403-5.538 5.537-17.403-17.403zM640.872 141.547l5.538 5.538-17.403 17.403-5.538-5.537 17.403-17.404z"/><path d="M623.469 147.085l5.538-5.538 17.403 17.404-5.538 5.537-17.403-17.403z"/></g><mask id="as" width="76" height="75" x="672" y="78" mask-type="alpha" maskUnits="userSpaceOnUse"><path fill="#C4C4C4" d="M672.354 78h74.954v74.954h-74.954z"/></mask><g fill="#386339" mask="url(#as)"><path d="M678.349 104.07l5.538 5.537-17.403 17.404-5.538-5.538 17.403-17.403z"/><path d="M660.946 109.607l5.538-5.537 17.403 17.403-5.538 5.538-17.403-17.404zM753.304 104.07l5.537 5.537-17.403 17.404-5.537-5.538 17.403-17.403z"/><path d="M735.901 109.607l5.537-5.537 17.403 17.403-5.537 5.538-17.403-17.404zM715.827 66.593l5.537 5.537-17.403 17.403-5.537-5.537 17.403-17.403z"/><path d="M698.424 72.13l5.537-5.537 17.403 17.403-5.537 5.537-17.403-17.403zM715.827 141.547l5.537 5.538-17.403 17.403-5.537-5.537 17.403-17.404z"/><path d="M698.424 147.085l5.537-5.538 17.403 17.404-5.537 5.537-17.403-17.403z"/></g><mask id="at" width="76" height="75" x="746" y="78" mask-type="alpha" maskUnits="userSpaceOnUse"><path fill="#C4C4C4" d="M746.749 78h74.954v74.954h-74.954z"/></mask><g fill="#386339" mask="url(#at)"><path d="M752.745 104.07l5.537 5.537-17.403 17.404-5.538-5.538 17.404-17.403z"/><path d="M735.341 109.607l5.538-5.537 17.403 17.403-5.537 5.538-17.404-17.404zM827.699 104.07l5.537 5.537-17.403 17.404-5.537-5.538 17.403-17.403z"/><path d="M810.296 109.607l5.537-5.537 17.403 17.403-5.537 5.538-17.403-17.404zM790.222 66.593l5.537 5.537-17.403 17.403-5.537-5.537 17.403-17.403z"/><path d="M772.819 72.13l5.537-5.537 17.403 17.403-5.537 5.537-17.403-17.403zM790.222 141.547l5.537 5.538-17.403 17.403-5.537-5.537 17.403-17.404z"/><path d="M772.819 147.085l5.537-5.538 17.403 17.404-5.537 5.537-17.403-17.403z"/></g><mask id="au" width="76" height="75" x="821" y="78" mask-type="alpha" maskUnits="userSpaceOnUse"><path fill="#C4C4C4" d="M821.409 78h74.954v74.954h-74.954z"/></mask><g fill="#386339" mask="url(#au)"><path d="M827.405 104.07l5.538 5.537-17.404 17.404-5.537-5.538 17.403-17.403z"/><path d="M810.002 109.607l5.537-5.537 17.404 17.403-5.538 5.538-17.403-17.404zM902.36 104.07l5.537 5.537-17.403 17.404-5.537-5.538 17.403-17.403z"/><path d="M884.957 109.607l5.537-5.537 17.403 17.403-5.537 5.538-17.403-17.404zM864.882 66.593l5.538 5.537-17.403 17.403-5.538-5.537 17.403-17.403z"/><path d="M847.479 72.13l5.538-5.537 17.403 17.403-5.538 5.537-17.403-17.403zM864.882 141.547l5.538 5.538-17.403 17.403-5.538-5.537 17.403-17.404z"/><path d="M847.479 147.085l5.538-5.538 17.403 17.404-5.538 5.537-17.403-17.403z"/></g><mask id="av" width="76" height="75" x="896" y="78" mask-type="alpha" maskUnits="userSpaceOnUse"><path fill="#C4C4C4" d="M896.364 78h74.954v74.954h-74.954z"/></mask><g fill="#386339" mask="url(#av)"><path d="M902.36 104.07l5.537 5.537-17.403 17.404-5.538-5.538 17.404-17.403z"/><path d="M884.956 109.607l5.538-5.537 17.403 17.403-5.537 5.538-17.404-17.404zM977.314 104.07l5.538 5.537-17.404 17.404-5.537-5.538 17.403-17.403z"/><path d="M959.911 109.607l5.537-5.537 17.404 17.403-5.538 5.538-17.403-17.404zM939.837 66.593l5.537 5.537-17.403 17.403-5.537-5.537 17.403-17.403z"/><path d="M922.434 72.13l5.537-5.537 17.403 17.403-5.537 5.537-17.403-17.403zM939.837 141.547l5.537 5.538-17.403 17.403-5.537-5.537 17.403-17.404z"/><path d="M922.434 147.085l5.537-5.538 17.403 17.404-5.537 5.537-17.403-17.403z"/></g><mask id="aw" width="76" height="75" x="970" y="78" mask-type="alpha" maskUnits="userSpaceOnUse"><path fill="#C4C4C4" d="M970.545 78h74.954v74.954h-74.954z"/></mask><g fill="#386339" mask="url(#aw)"><path d="M976.542 104.07l5.537 5.537-17.403 17.404-5.537-5.538 17.403-17.403z"/><path d="M959.139 109.607l5.537-5.537 17.403 17.403-5.537 5.538-17.403-17.404zM1051.5 104.07l5.53 5.537-17.4 17.404-5.54-5.538 17.41-17.403z"/><path d="M1034.09 109.607l5.54-5.537 17.4 17.403-5.53 5.538-17.41-17.404zM1014.02 66.593l5.54 5.537-17.41 17.403-5.534-5.537 17.404-17.403z"/><path d="M996.616 72.13l5.534-5.537 17.41 17.403-5.54 5.537-17.404-17.403zM1014.02 141.547l5.54 5.538-17.41 17.403-5.534-5.537 17.404-17.404z"/><path d="M996.616 147.085l5.534-5.538 17.41 17.404-5.54 5.537-17.404-17.403z"/></g><mask id="ax" width="76" height="75" x="1045" y="78" mask-type="alpha" maskUnits="userSpaceOnUse"><path fill="#C4C4C4" d="M1045.5 78h74.954v74.954H1045.5z"/></mask><g fill="#386339" mask="url(#ax)"><path d="M1051.5 104.07l5.53 5.537-17.4 17.404-5.54-5.538 17.41-17.403z"/><path d="M1034.09 109.607l5.54-5.537 17.4 17.403-5.53 5.538-17.41-17.404zM1126.45 104.07l5.54 5.537-17.4 17.404-5.54-5.538 17.4-17.403z"/><path d="M1109.05 109.607l5.54-5.537 17.4 17.403-5.54 5.538-17.4-17.404zM1088.97 66.593l5.54 5.537-17.4 17.403-5.54-5.537 17.4-17.403z"/><path d="M1071.57 72.13l5.54-5.537 17.4 17.403-5.54 5.537-17.4-17.403zM1088.97 141.547l5.54 5.538-17.4 17.403-5.54-5.537 17.4-17.404z"/><path d="M1071.57 147.085l5.54-5.538 17.4 17.404-5.54 5.537-17.4-17.403z"/></g><mask id="ay" width="75" height="75" x="0" y="3" mask-type="alpha" maskUnits="userSpaceOnUse"><path fill="#C4C4C4" d="M0 3h74.954v74.954H0z"/></mask><g fill="#386339" mask="url(#ay)"><path d="M5.995 29.07l5.538 5.537L-5.87 52.011l-5.538-5.538L5.995 29.07z"/><path d="M-11.408 34.607l5.538-5.537 17.403 17.403-5.538 5.538-17.403-17.404zM80.95 29.07l5.537 5.537-17.403 17.404-5.537-5.538L80.95 29.07z"/><path d="M63.547 34.607l5.537-5.537 17.403 17.403-5.537 5.538-17.403-17.404zM43.473-8.407L49.01-2.87 31.607 14.533 26.07 8.996 43.472-8.407z"/><path d="M26.07-2.87l5.537-5.537L49.01 8.996l-5.537 5.537L26.07-2.87zM43.473 66.547l5.537 5.538-17.403 17.403-5.537-5.537 17.403-17.404z"/><path d="M26.07 72.085l5.537-5.538L49.01 83.951l-5.537 5.537L26.07 72.085z"/></g><mask id="az" width="76" height="75" x="73" y="3" mask-type="alpha" maskUnits="userSpaceOnUse"><path fill="#C4C4C4" d="M73.836 3h74.954v74.954H73.836z"/></mask><g fill="#386339" mask="url(#az)"><path d="M79.832 29.07l5.537 5.537-17.403 17.404-5.538-5.538L79.832 29.07z"/><path d="M62.428 34.607l5.538-5.537 17.403 17.403-5.537 5.538-17.404-17.404zM154.786 29.07l5.538 5.537-17.404 17.404-5.537-5.538 17.403-17.403z"/><path d="M137.383 34.607l5.537-5.537 17.404 17.403-5.538 5.538-17.403-17.404zM117.309-8.407l5.537 5.537-17.403 17.403-5.537-5.537 17.403-17.403z"/><path d="M99.906-2.87l5.537-5.537 17.403 17.403-5.537 5.537L99.906-2.87zM117.309 66.547l5.537 5.538-17.403 17.403-5.537-5.537 17.403-17.404z"/><path d="M99.906 72.085l5.537-5.538 17.403 17.404-5.537 5.537-17.403-17.403z"/></g><mask id="aA" width="76" height="75" x="148" y="3" mask-type="alpha" maskUnits="userSpaceOnUse"><path fill="#C4C4C4" d="M148.79 3h74.954v74.954H148.79z"/></mask><g fill="#386339" mask="url(#aA)"><path d="M154.786 29.07l5.538 5.537-17.404 17.404-5.537-5.538 17.403-17.403z"/><path d="M137.383 34.607l5.537-5.537 17.404 17.403-5.538 5.538-17.403-17.404zM229.741 29.07l5.537 5.537-17.403 17.404-5.537-5.538 17.403-17.403z"/><path d="M212.338 34.607l5.537-5.537 17.403 17.403-5.537 5.538-17.403-17.404zM192.263-8.407l5.538 5.537-17.403 17.403-5.538-5.537 17.403-17.403z"/><path d="M174.86-2.87l5.538-5.537 17.403 17.403-5.537 5.537L174.86-2.87zM192.263 66.547l5.538 5.538-17.403 17.403-5.538-5.537 17.403-17.404z"/><path d="M174.86 72.085l5.538-5.538 17.403 17.404-5.537 5.537-17.404-17.403z"/></g><mask id="aB" width="76" height="75" x="223" y="3" mask-type="alpha" maskUnits="userSpaceOnUse"><path fill="#C4C4C4" d="M223.745 3h74.954v74.954h-74.954z"/></mask><g fill="#386339" mask="url(#aB)"><path d="M229.741 29.07l5.537 5.537-17.403 17.404-5.538-5.538 17.404-17.403z"/><path d="M212.337 34.607l5.538-5.537 17.403 17.403-5.537 5.538-17.404-17.404zM304.695 29.07l5.538 5.537-17.404 17.404-5.537-5.538 17.403-17.403z"/><path d="M287.292 34.607l5.537-5.537 17.404 17.403-5.538 5.538-17.403-17.404zM267.218-8.407l5.537 5.537-17.403 17.403-5.537-5.537 17.403-17.403z"/><path d="M249.815-2.87l5.537-5.537 17.403 17.403-5.537 5.537L249.815-2.87zM267.218 66.547l5.537 5.538-17.403 17.403-5.537-5.537 17.403-17.404z"/><path d="M249.815 72.085l5.537-5.538 17.403 17.404-5.537 5.537-17.403-17.403z"/></g><mask id="aC" width="76" height="75" x="298" y="3" mask-type="alpha" maskUnits="userSpaceOnUse"><path fill="#C4C4C4" d="M298.7 3h74.954v74.954H298.7z"/></mask><g fill="#386339" mask="url(#aC)"><path d="M304.695 29.07l5.538 5.537-17.404 17.404-5.537-5.538 17.403-17.403z"/><path d="M287.292 34.607l5.537-5.537 17.404 17.403-5.538 5.538-17.403-17.404zM379.649 29.07l5.538 5.537-17.403 17.404-5.538-5.538 17.403-17.403z"/><path d="M362.246 34.607l5.538-5.537 17.403 17.403-5.538 5.538-17.403-17.404zM342.173-8.407l5.537 5.537-17.403 17.403-5.538-5.537 17.404-17.403z"/><path d="M324.769-2.87l5.538-5.537L347.71 8.996l-5.537 5.537L324.769-2.87zM342.173 66.547l5.537 5.538-17.403 17.403-5.538-5.537 17.404-17.404z"/><path d="M324.769 72.085l5.538-5.538 17.403 17.404-5.537 5.537-17.404-17.403z"/></g><mask id="aD" width="76" height="75" x="373" y="3" mask-type="alpha" maskUnits="userSpaceOnUse"><path fill="#C4C4C4" d="M373.095 3h74.954v74.954h-74.954z"/></mask><g fill="#386339" mask="url(#aD)"><path d="M379.091 29.07l5.537 5.537-17.403 17.404-5.538-5.538 17.404-17.403z"/><path d="M361.687 34.607l5.538-5.537 17.403 17.403-5.537 5.538-17.404-17.404zM454.045 29.07l5.538 5.537-17.403 17.404-5.538-5.538 17.403-17.403z"/><path d="M436.642 34.607l5.538-5.537 17.403 17.403-5.538 5.538-17.403-17.404zM416.568-8.407l5.538 5.537-17.404 17.403-5.537-5.537 17.403-17.403z"/><path d="M399.165-2.87l5.537-5.537 17.404 17.403-5.538 5.537L399.165-2.87zM416.568 66.547l5.538 5.538-17.404 17.403-5.537-5.537 17.403-17.404z"/><path d="M399.165 72.085l5.537-5.538 17.404 17.404-5.538 5.537-17.403-17.403z"/></g><mask id="aE" width="76" height="75" x="447" y="3" mask-type="alpha" maskUnits="userSpaceOnUse"><path fill="#C4C4C4" d="M447.49 3h74.954v74.954H447.49z"/></mask><g fill="#386339" mask="url(#aE)"><path d="M453.486 29.07l5.537 5.537-17.403 17.404-5.537-5.538 17.403-17.403z"/><path d="M436.083 34.607l5.537-5.537 17.403 17.403-5.537 5.538-17.403-17.404zM528.441 29.07l5.537 5.537-17.403 17.404-5.538-5.538 17.404-17.403z"/><path d="M511.037 34.607l5.538-5.537 17.403 17.403-5.537 5.538-17.404-17.404zM490.963-8.407l5.538 5.537-17.404 17.403-5.537-5.537 17.403-17.403z"/><path d="M473.56-2.87l5.537-5.537 17.404 17.403-5.538 5.537L473.56-2.87zM490.963 66.547l5.538 5.538-17.404 17.403-5.537-5.537 17.403-17.404z"/><path d="M473.56 72.085l5.537-5.538 17.404 17.404-5.538 5.537-17.403-17.403z"/></g><mask id="aF" width="76" height="75" x="522" y="3" mask-type="alpha" maskUnits="userSpaceOnUse"><path fill="#C4C4C4" d="M522.444 3h74.954v74.954h-74.954z"/></mask><g fill="#386339" mask="url(#aF)"><path d="M528.441 29.07l5.537 5.537-17.403 17.404-5.538-5.538 17.404-17.403z"/><path d="M511.037 34.607l5.538-5.537 17.403 17.403-5.537 5.538-17.404-17.404zM603.396 29.07l5.537 5.537-17.403 17.404-5.538-5.538 17.404-17.403z"/><path d="M585.992 34.607l5.538-5.537 17.403 17.403-5.537 5.538-17.404-17.404zM565.918-8.407l5.537 5.537-17.403 17.403-5.537-5.537 17.403-17.403z"/><path d="M548.515-2.87l5.537-5.537 17.403 17.403-5.537 5.537L548.515-2.87zM565.918 66.547l5.537 5.538-17.403 17.403-5.537-5.537 17.403-17.404z"/><path d="M548.515 72.085l5.537-5.538 17.403 17.404-5.537 5.537-17.403-17.403z"/></g><mask id="aG" width="76" height="75" x="597" y="3" mask-type="alpha" maskUnits="userSpaceOnUse"><path fill="#C4C4C4" d="M597.399 3h74.954v74.954h-74.954z"/></mask><g fill="#386339" mask="url(#aG)"><path d="M603.395 29.07l5.537 5.537-17.403 17.404-5.537-5.538 17.403-17.403z"/><path d="M585.992 34.607l5.537-5.537 17.403 17.403-5.537 5.538-17.403-17.404zM678.349 29.07l5.538 5.537-17.403 17.404-5.538-5.538 17.403-17.403z"/><path d="M660.946 34.607l5.538-5.537 17.403 17.403-5.538 5.538-17.403-17.404zM640.872-8.407l5.538 5.537-17.403 17.403-5.538-5.537 17.403-17.403z"/><path d="M623.469-2.87l5.538-5.537L646.41 8.996l-5.538 5.537L623.469-2.87zM640.872 66.547l5.538 5.538-17.403 17.403-5.538-5.537 17.403-17.404z"/><path d="M623.469 72.085l5.538-5.538 17.403 17.404-5.538 5.537-17.403-17.403z"/></g><mask id="aH" width="76" height="75" x="672" y="3" mask-type="alpha" maskUnits="userSpaceOnUse"><path fill="#C4C4C4" d="M672.354 3h74.954v74.954h-74.954z"/></mask><g fill="#386339" mask="url(#aH)"><path d="M678.349 29.07l5.538 5.537-17.403 17.404-5.538-5.538 17.403-17.403z"/><path d="M660.946 34.607l5.538-5.537 17.403 17.403-5.538 5.538-17.403-17.404zM753.304 29.07l5.537 5.537-17.403 17.404-5.537-5.538 17.403-17.403z"/><path d="M735.901 34.607l5.537-5.537 17.403 17.403-5.537 5.538-17.403-17.404zM715.827-8.407l5.537 5.537-17.403 17.403-5.537-5.537 17.403-17.403z"/><path d="M698.424-2.87l5.537-5.537 17.403 17.403-5.537 5.537L698.424-2.87zM715.827 66.547l5.537 5.538-17.403 17.403-5.537-5.537 17.403-17.404z"/><path d="M698.424 72.085l5.537-5.538 17.403 17.404-5.537 5.537-17.403-17.403z"/></g><mask id="aI" width="76" height="75" x="746" y="3" mask-type="alpha" maskUnits="userSpaceOnUse"><path fill="#C4C4C4" d="M746.749 3h74.954v74.954h-74.954z"/></mask><g fill="#386339" mask="url(#aI)"><path d="M752.745 29.07l5.537 5.537-17.403 17.404-5.538-5.538 17.404-17.403z"/><path d="M735.341 34.607l5.538-5.537 17.403 17.403-5.537 5.538-17.404-17.404zM827.699 29.07l5.537 5.537-17.403 17.404-5.537-5.538 17.403-17.403z"/><path d="M810.296 34.607l5.537-5.537 17.403 17.403-5.537 5.538-17.403-17.404zM790.222-8.407l5.537 5.537-17.403 17.403-5.537-5.537 17.403-17.403z"/><path d="M772.819-2.87l5.537-5.537 17.403 17.403-5.537 5.537L772.819-2.87zM790.222 66.547l5.537 5.538-17.403 17.403-5.537-5.537 17.403-17.404z"/><path d="M772.819 72.085l5.537-5.538 17.403 17.404-5.537 5.537-17.403-17.403z"/></g><mask id="aJ" width="76" height="75" x="821" y="3" mask-type="alpha" maskUnits="userSpaceOnUse"><path fill="#C4C4C4" d="M821.409 3h74.954v74.954h-74.954z"/></mask><g fill="#386339" mask="url(#aJ)"><path d="M827.405 29.07l5.538 5.537-17.404 17.404-5.537-5.538 17.403-17.403z"/><path d="M810.002 34.607l5.537-5.537 17.404 17.403-5.538 5.538-17.403-17.404zM902.36 29.07l5.537 5.537-17.403 17.404-5.537-5.538L902.36 29.07z"/><path d="M884.957 34.607l5.537-5.537 17.403 17.403-5.537 5.538-17.403-17.404zM864.882-8.407l5.538 5.537-17.403 17.403-5.538-5.537 17.403-17.403z"/><path d="M847.479-2.87l5.538-5.537L870.42 8.996l-5.538 5.537L847.479-2.87zM864.882 66.547l5.538 5.538-17.403 17.403-5.538-5.537 17.403-17.404z"/><path d="M847.479 72.085l5.538-5.538 17.403 17.404-5.538 5.537-17.403-17.403z"/></g><mask id="aK" width="76" height="75" x="896" y="3" mask-type="alpha" maskUnits="userSpaceOnUse"><path fill="#C4C4C4" d="M896.364 3h74.954v74.954h-74.954z"/></mask><g fill="#386339" mask="url(#aK)"><path d="M902.36 29.07l5.537 5.537-17.403 17.404-5.538-5.538L902.36 29.07z"/><path d="M884.956 34.607l5.538-5.537 17.403 17.403-5.537 5.538-17.404-17.404zM977.314 29.07l5.538 5.537-17.404 17.404-5.537-5.538 17.403-17.403z"/><path d="M959.911 34.607l5.537-5.537 17.404 17.403-5.538 5.538-17.403-17.404zM939.837-8.407l5.537 5.537-17.403 17.403-5.537-5.537 17.403-17.403z"/><path d="M922.434-2.87l5.537-5.537 17.403 17.403-5.537 5.537L922.434-2.87zM939.837 66.547l5.537 5.538-17.403 17.403-5.537-5.537 17.403-17.404z"/><path d="M922.434 72.085l5.537-5.538 17.403 17.404-5.537 5.537-17.403-17.403z"/></g><mask id="aL" width="76" height="75" x="970" y="3" mask-type="alpha" maskUnits="userSpaceOnUse"><path fill="#C4C4C4" d="M970.545 3h74.954v74.954h-74.954z"/></mask><g fill="#386339" mask="url(#aL)"><path d="M976.542 29.07l5.537 5.537-17.403 17.404-5.537-5.538 17.403-17.403z"/><path d="M959.139 34.607l5.537-5.537 17.403 17.403-5.537 5.538-17.403-17.404zM1051.5 29.07l5.53 5.537-17.4 17.404-5.54-5.538 17.41-17.403z"/><path d="M1034.09 34.607l5.54-5.537 17.4 17.403-5.53 5.538-17.41-17.404zM1014.02-8.407l5.54 5.537-17.41 17.403-5.534-5.537 17.404-17.403z"/><path d="M996.616-2.87l5.534-5.537 17.41 17.403-5.54 5.537L996.616-2.87zM1014.02 66.547l5.54 5.538-17.41 17.403-5.534-5.537 17.404-17.404z"/><path d="M996.616 72.085l5.534-5.538 17.41 17.404-5.54 5.537-17.404-17.403z"/></g><mask id="aM" width="76" height="75" x="1045" y="3" mask-type="alpha" maskUnits="userSpaceOnUse"><path fill="#C4C4C4" d="M1045.5 3h74.954v74.954H1045.5z"/></mask><g fill="#386339" mask="url(#aM)"><path d="M1051.5 29.07l5.53 5.537-17.4 17.404-5.54-5.538 17.41-17.403z"/><path d="M1034.09 34.607l5.54-5.537 17.4 17.403-5.53 5.538-17.41-17.404zM1126.45 29.07l5.54 5.537-17.4 17.404-5.54-5.538 17.4-17.403z"/><path d="M1109.05 34.607l5.54-5.537 17.4 17.403-5.54 5.538-17.4-17.404zM1088.97-8.407l5.54 5.537-17.4 17.403-5.54-5.537 17.4-17.403z"/><path d="M1071.57-2.87l5.54-5.537 17.4 17.403-5.54 5.537-17.4-17.403zM1088.97 66.547l5.54 5.538-17.4 17.403-5.54-5.537 17.4-17.404z"/><path d="M1071.57 72.085l5.54-5.538 17.4 17.404-5.54 5.537-17.4-17.403z"/></g><mask id="aN" width="75" height="76" x="1120" y="227" mask-type="alpha" maskUnits="userSpaceOnUse"><path fill="#C4C4C4" d="M1120 227.136h74.954v74.954H1120z"/></mask><g fill="#386339" mask="url(#aN)"><path d="M1126 253.206l5.53 5.538-17.4 17.403-5.54-5.537 17.41-17.404z"/><path d="M1108.59 258.744l5.54-5.538 17.4 17.404-5.53 5.537-17.41-17.403zM1200.95 253.206l5.54 5.538-17.41 17.403-5.53-5.537 17.4-17.404z"/><path d="M1183.55 258.744l5.53-5.538 17.41 17.404-5.54 5.537-17.4-17.403zM1163.47 215.729l5.54 5.537-17.4 17.404-5.54-5.538 17.4-17.403z"/><path d="M1146.07 221.266l5.54-5.537 17.4 17.403-5.54 5.538-17.4-17.404zM1163.47 290.684l5.54 5.537-17.4 17.403-5.54-5.537 17.4-17.403z"/><path d="M1146.07 296.221l5.54-5.537 17.4 17.403-5.54 5.537-17.4-17.403z"/></g><mask id="aO" width="75" height="76" x="1120" y="302" mask-type="alpha" maskUnits="userSpaceOnUse"><path fill="#C4C4C4" d="M1120 302.091h74.954v74.954H1120z"/></mask><g fill="#386339" mask="url(#aO)"><path d="M1126 328.161l5.53 5.537-17.4 17.404-5.54-5.538 17.41-17.403z"/><path d="M1108.59 333.698l5.54-5.537 17.4 17.403-5.53 5.538-17.41-17.404zM1200.95 328.161l5.54 5.537-17.41 17.404-5.53-5.538 17.4-17.403z"/><path d="M1183.55 333.698l5.53-5.537 17.41 17.403-5.54 5.538-17.4-17.404zM1163.47 290.684l5.54 5.537-17.4 17.403-5.54-5.537 17.4-17.403z"/><path d="M1146.07 296.221l5.54-5.537 17.4 17.403-5.54 5.537-17.4-17.403zM1163.47 365.638l5.54 5.538-17.4 17.403-5.54-5.538 17.4-17.403z"/><path d="M1146.07 371.176l5.54-5.538 17.4 17.403-5.54 5.538-17.4-17.403z"/></g><mask id="aP" width="75" height="75" x="1120" y="377" mask-type="alpha" maskUnits="userSpaceOnUse"><path fill="#C4C4C4" d="M1120 377.045h74.954v74.954H1120z"/></mask><g fill="#386339" mask="url(#aP)"><path d="M1126 403.115l5.53 5.538-17.4 17.403-5.54-5.537 17.41-17.404z"/><path d="M1108.59 408.653l5.54-5.538 17.4 17.404-5.53 5.537-17.41-17.403zM1200.95 403.115l5.54 5.538-17.41 17.403-5.53-5.537 17.4-17.404z"/><path d="M1183.55 408.653l5.53-5.538 17.41 17.404-5.54 5.537-17.4-17.403zM1163.47 365.638l5.54 5.538-17.4 17.403-5.54-5.538 17.4-17.403z"/><path d="M1146.07 371.176l5.54-5.538 17.4 17.403-5.54 5.538-17.4-17.403zM1163.47 440.593l5.54 5.537-17.4 17.403-5.54-5.537 17.4-17.403z"/><path d="M1146.07 446.13l5.54-5.537 17.4 17.403-5.54 5.537-17.4-17.403z"/></g><mask id="aQ" width="75" height="76" x="1120" y="152" mask-type="alpha" maskUnits="userSpaceOnUse"><path fill="#C4C4C4" d="M1120 152.182h74.954v74.954H1120z"/></mask><g fill="#386339" mask="url(#aQ)"><path d="M1126 178.252l5.53 5.537-17.4 17.403-5.54-5.537 17.41-17.403z"/><path d="M1108.59 183.789l5.54-5.537 17.4 17.403-5.53 5.537-17.41-17.403zM1200.95 178.252l5.54 5.537-17.41 17.403-5.53-5.537 17.4-17.403z"/><path d="M1183.55 183.789l5.53-5.537 17.41 17.403-5.54 5.537-17.4-17.403zM1163.47 140.775l5.54 5.537-17.4 17.403-5.54-5.537 17.4-17.403z"/><path d="M1146.07 146.312l5.54-5.537 17.4 17.403-5.54 5.537-17.4-17.403zM1163.47 215.729l5.54 5.537-17.4 17.404-5.54-5.538 17.4-17.403z"/><path d="M1146.07 221.266l5.54-5.537 17.4 17.403-5.54 5.538-17.4-17.404z"/></g><mask id="aR" width="76" height="76" x="1194" y="227" mask-type="alpha" maskUnits="userSpaceOnUse"><path fill="#C4C4C4" d="M1194.18 227.136h74.954v74.954h-74.954z"/></mask><g fill="#386339" mask="url(#aR)"><path d="M1200.18 253.206l5.54 5.538-17.41 17.403-5.53-5.537 17.4-17.404z"/><path d="M1182.78 258.744l5.53-5.538 17.41 17.404-5.54 5.537-17.4-17.403zM1275.13 253.206l5.54 5.538-17.4 17.403-5.54-5.537 17.4-17.404z"/><path d="M1257.73 258.744l5.54-5.538 17.4 17.404-5.54 5.537-17.4-17.403zM1237.66 215.729l5.53 5.537-17.4 17.404-5.54-5.538 17.41-17.403z"/><path d="M1220.25 221.266l5.54-5.537 17.4 17.403-5.53 5.538-17.41-17.404zM1237.66 290.684l5.53 5.537-17.4 17.403-5.54-5.537 17.41-17.403z"/><path d="M1220.25 296.221l5.54-5.537 17.4 17.403-5.53 5.537-17.41-17.403z"/></g><mask id="aS" width="76" height="76" x="1194" y="302" mask-type="alpha" maskUnits="userSpaceOnUse"><path fill="#C4C4C4" d="M1194.18 302.091h74.954v74.954h-74.954z"/></mask><g fill="#386339" mask="url(#aS)"><path d="M1200.18 328.161l5.54 5.537-17.41 17.404-5.53-5.538 17.4-17.403z"/><path d="M1182.78 333.698l5.53-5.537 17.41 17.403-5.54 5.538-17.4-17.404zM1275.13 328.161l5.54 5.537-17.4 17.404-5.54-5.538 17.4-17.403z"/><path d="M1257.73 333.698l5.54-5.537 17.4 17.403-5.54 5.538-17.4-17.404zM1237.66 290.684l5.53 5.537-17.4 17.403-5.54-5.537 17.41-17.403z"/><path d="M1220.25 296.221l5.54-5.537 17.4 17.403-5.53 5.537-17.41-17.403zM1237.66 365.638l5.53 5.538-17.4 17.403-5.54-5.538 17.41-17.403z"/><path d="M1220.25 371.176l5.54-5.538 17.4 17.403-5.53 5.538-17.41-17.403z"/></g><mask id="aT" width="76" height="75" x="1194" y="377" mask-type="alpha" maskUnits="userSpaceOnUse"><path fill="#C4C4C4" d="M1194.18 377.045h74.954v74.954h-74.954z"/></mask><g fill="#386339" mask="url(#aT)"><path d="M1200.18 403.115l5.54 5.538-17.41 17.403-5.53-5.537 17.4-17.404z"/><path d="M1182.78 408.653l5.53-5.538 17.41 17.404-5.54 5.537-17.4-17.403zM1275.13 403.115l5.54 5.538-17.4 17.403-5.54-5.537 17.4-17.404z"/><path d="M1257.73 408.653l5.54-5.538 17.4 17.404-5.54 5.537-17.4-17.403zM1237.66 365.638l5.53 5.538-17.4 17.403-5.54-5.538 17.41-17.403z"/><path d="M1220.25 371.176l5.54-5.538 17.4 17.403-5.53 5.538-17.41-17.403zM1237.66 440.593l5.53 5.537-17.4 17.403-5.54-5.537 17.41-17.403z"/><path d="M1220.25 446.13l5.54-5.537 17.4 17.403-5.53 5.537-17.41-17.403z"/></g><mask id="aU" width="76" height="76" x="1194" y="152" mask-type="alpha" maskUnits="userSpaceOnUse"><path fill="#C4C4C4" d="M1194.18 152.182h74.954v74.954h-74.954z"/></mask><g fill="#386339" mask="url(#aU)"><path d="M1200.18 178.252l5.54 5.537-17.41 17.403-5.53-5.537 17.4-17.403z"/><path d="M1182.78 183.789l5.53-5.537 17.41 17.403-5.54 5.537-17.4-17.403zM1275.13 178.252l5.54 5.537-17.4 17.403-5.54-5.537 17.4-17.403z"/><path d="M1257.73 183.789l5.54-5.537 17.4 17.403-5.54 5.537-17.4-17.403zM1237.66 140.775l5.53 5.537-17.4 17.403-5.54-5.537 17.41-17.403z"/><path d="M1220.25 146.312l5.54-5.537 17.4 17.403-5.53 5.537-17.41-17.403zM1237.66 215.729l5.53 5.537-17.4 17.404-5.54-5.538 17.41-17.403z"/><path d="M1220.25 221.266l5.54-5.537 17.4 17.403-5.53 5.538-17.41-17.404z"/></g><mask id="aV" width="76" height="76" x="1269" y="227" mask-type="alpha" maskUnits="userSpaceOnUse"><path fill="#C4C4C4" d="M1269.14 227.136h74.954v74.954h-74.954z"/></mask><g fill="#386339" mask="url(#aV)"><path d="M1275.13 253.206l5.54 5.538-17.4 17.403-5.54-5.537 17.4-17.404z"/><path d="M1257.73 258.744l5.54-5.538 17.4 17.404-5.54 5.537-17.4-17.403zM1350.09 253.206l5.54 5.538-17.41 17.403-5.54-5.537 17.41-17.404z"/><path d="M1332.68 258.744l5.54-5.538 17.41 17.404-5.54 5.537-17.41-17.403zM1312.61 215.729l5.54 5.537-17.41 17.404-5.53-5.538 17.4-17.403z"/><path d="M1295.21 221.266l5.53-5.537 17.41 17.403-5.54 5.538-17.4-17.404zM1312.61 290.684l5.54 5.537-17.41 17.403-5.53-5.537 17.4-17.403z"/><path d="M1295.21 296.221l5.53-5.537 17.41 17.403-5.54 5.537-17.4-17.403z"/></g><mask id="aW" width="76" height="76" x="1269" y="302" mask-type="alpha" maskUnits="userSpaceOnUse"><path fill="#C4C4C4" d="M1269.14 302.091h74.954v74.954h-74.954z"/></mask><g fill="#386339" mask="url(#aW)"><path d="M1275.13 328.161l5.54 5.537-17.4 17.404-5.54-5.538 17.4-17.403z"/><path d="M1257.73 333.698l5.54-5.537 17.4 17.403-5.54 5.538-17.4-17.404zM1350.09 328.161l5.54 5.537-17.41 17.404-5.54-5.538 17.41-17.403z"/><path d="M1332.68 333.698l5.54-5.537 17.41 17.403-5.54 5.538-17.41-17.404zM1312.61 290.684l5.54 5.537-17.41 17.403-5.53-5.537 17.4-17.403z"/><path d="M1295.21 296.221l5.53-5.537 17.41 17.403-5.54 5.537-17.4-17.403zM1312.61 365.638l5.54 5.538-17.41 17.403-5.53-5.538 17.4-17.403z"/><path d="M1295.21 371.176l5.53-5.538 17.41 17.403-5.54 5.538-17.4-17.403z"/></g><mask id="aX" width="76" height="75" x="1269" y="377" mask-type="alpha" maskUnits="userSpaceOnUse"><path fill="#C4C4C4" d="M1269.14 377.045h74.954v74.954h-74.954z"/></mask><g fill="#386339" mask="url(#aX)"><path d="M1275.13 403.115l5.54 5.538-17.4 17.403-5.54-5.537 17.4-17.404z"/><path d="M1257.73 408.653l5.54-5.538 17.4 17.404-5.54 5.537-17.4-17.403zM1350.09 403.115l5.54 5.538-17.41 17.403-5.54-5.537 17.41-17.404z"/><path d="M1332.68 408.653l5.54-5.538 17.41 17.404-5.54 5.537-17.41-17.403zM1312.61 365.638l5.54 5.538-17.41 17.403-5.53-5.538 17.4-17.403z"/><path d="M1295.21 371.176l5.53-5.538 17.41 17.403-5.54 5.538-17.4-17.403zM1312.61 440.593l5.54 5.537-17.41 17.403-5.53-5.537 17.4-17.403z"/><path d="M1295.21 446.13l5.53-5.537 17.41 17.403-5.54 5.537-17.4-17.403z"/></g><mask id="aY" width="76" height="76" x="1269" y="152" mask-type="alpha" maskUnits="userSpaceOnUse"><path fill="#C4C4C4" d="M1269.14 152.182h74.954v74.954h-74.954z"/></mask><g fill="#386339" mask="url(#aY)"><path d="M1275.13 178.252l5.54 5.537-17.4 17.403-5.54-5.537 17.4-17.403z"/><path d="M1257.73 183.789l5.54-5.537 17.4 17.403-5.54 5.537-17.4-17.403zM1350.09 178.252l5.54 5.537-17.41 17.403-5.54-5.537 17.41-17.403z"/><path d="M1332.68 183.789l5.54-5.537 17.41 17.403-5.54 5.537-17.41-17.403zM1312.61 140.775l5.54 5.537-17.41 17.403-5.53-5.537 17.4-17.403z"/><path d="M1295.21 146.312l5.53-5.537 17.41 17.403-5.54 5.537-17.4-17.403zM1312.61 215.729l5.54 5.537-17.41 17.404-5.53-5.538 17.4-17.403z"/><path d="M1295.21 221.266l5.53-5.537 17.41 17.403-5.54 5.538-17.4-17.404z"/></g><mask id="aZ" width="75" height="75" x="1120" y="78" mask-type="alpha" maskUnits="userSpaceOnUse"><path fill="#C4C4C4" d="M1120 78h74.954v74.954H1120z"/></mask><g fill="#386339" mask="url(#aZ)"><path d="M1126 104.07l5.53 5.537-17.4 17.404-5.54-5.538L1126 104.07z"/><path d="M1108.59 109.607l5.54-5.537 17.4 17.403-5.53 5.538-17.41-17.404zM1200.95 104.07l5.54 5.537-17.41 17.404-5.53-5.538 17.4-17.403z"/><path d="M1183.55 109.607l5.53-5.537 17.41 17.403-5.54 5.538-17.4-17.404zM1163.47 66.593l5.54 5.537-17.4 17.403-5.54-5.537 17.4-17.403z"/><path d="M1146.07 72.13l5.54-5.537 17.4 17.403-5.54 5.537-17.4-17.403zM1163.47 141.547l5.54 5.538-17.4 17.403-5.54-5.537 17.4-17.404z"/><path d="M1146.07 147.085l5.54-5.538 17.4 17.404-5.54 5.537-17.4-17.403z"/></g><mask id="ba" width="76" height="75" x="1194" y="78" mask-type="alpha" maskUnits="userSpaceOnUse"><path fill="#C4C4C4" d="M1194.18 78h74.954v74.954h-74.954z"/></mask><g fill="#386339" mask="url(#ba)"><path d="M1200.18 104.07l5.54 5.537-17.41 17.404-5.53-5.538 17.4-17.403z"/><path d="M1182.78 109.607l5.53-5.537 17.41 17.403-5.54 5.538-17.4-17.404zM1275.13 104.07l5.54 5.537-17.4 17.404-5.54-5.538 17.4-17.403z"/><path d="M1257.73 109.607l5.54-5.537 17.4 17.403-5.54 5.538-17.4-17.404zM1237.66 66.593l5.53 5.537-17.4 17.403-5.54-5.537 17.41-17.403z"/><path d="M1220.25 72.13l5.54-5.537 17.4 17.403-5.53 5.537-17.41-17.403zM1237.66 141.547l5.53 5.538-17.4 17.403-5.54-5.537 17.41-17.404z"/><path d="M1220.25 147.085l5.54-5.538 17.4 17.404-5.53 5.537-17.41-17.403z"/></g><mask id="bb" width="76" height="75" x="1269" y="78" mask-type="alpha" maskUnits="userSpaceOnUse"><path fill="#C4C4C4" d="M1269.14 78h74.954v74.954h-74.954z"/></mask><g fill="#386339" mask="url(#bb)"><path d="M1275.13 104.07l5.54 5.537-17.4 17.404-5.54-5.538 17.4-17.403z"/><path d="M1257.73 109.607l5.54-5.537 17.4 17.403-5.54 5.538-17.4-17.404zM1350.09 104.07l5.54 5.537-17.41 17.404-5.54-5.538 17.41-17.403z"/><path d="M1332.68 109.607l5.54-5.537 17.41 17.403-5.54 5.538-17.41-17.404zM1312.61 66.593l5.54 5.537-17.41 17.403-5.53-5.537 17.4-17.403z"/><path d="M1295.21 72.13l5.53-5.537 17.41 17.403-5.54 5.537-17.4-17.403zM1312.61 141.547l5.54 5.538-17.41 17.403-5.53-5.537 17.4-17.404z"/><path d="M1295.21 147.085l5.53-5.538 17.41 17.404-5.54 5.537-17.4-17.403z"/></g><mask id="bc" width="75" height="75" x="1120" y="3" mask-type="alpha" maskUnits="userSpaceOnUse"><path fill="#C4C4C4" d="M1120 3h74.954v74.954H1120z"/></mask><g fill="#386339" mask="url(#bc)"><path d="M1126 29.07l5.53 5.537-17.4 17.404-5.54-5.538L1126 29.07z"/><path d="M1108.59 34.607l5.54-5.537 17.4 17.403-5.53 5.538-17.41-17.404zM1200.95 29.07l5.54 5.537-17.41 17.404-5.53-5.538 17.4-17.403z"/><path d="M1183.55 34.607l5.53-5.537 17.41 17.403-5.54 5.538-17.4-17.404zM1163.47-8.407l5.54 5.537-17.4 17.403-5.54-5.537 17.4-17.403z"/><path d="M1146.07-2.87l5.54-5.537 17.4 17.403-5.54 5.537-17.4-17.403zM1163.47 66.547l5.54 5.538-17.4 17.403-5.54-5.537 17.4-17.404z"/><path d="M1146.07 72.085l5.54-5.538 17.4 17.404-5.54 5.537-17.4-17.403z"/></g><mask id="bd" width="76" height="75" x="1194" y="3" mask-type="alpha" maskUnits="userSpaceOnUse"><path fill="#C4C4C4" d="M1194.18 3h74.954v74.954h-74.954z"/></mask><g fill="#386339" mask="url(#bd)"><path d="M1200.18 29.07l5.54 5.537-17.41 17.404-5.53-5.538 17.4-17.403z"/><path d="M1182.78 34.607l5.53-5.537 17.41 17.403-5.54 5.538-17.4-17.404zM1275.13 29.07l5.54 5.537-17.4 17.404-5.54-5.538 17.4-17.403z"/><path d="M1257.73 34.607l5.54-5.537 17.4 17.403-5.54 5.538-17.4-17.404zM1237.66-8.407l5.53 5.537-17.4 17.403-5.54-5.537 17.41-17.403z"/><path d="M1220.25-2.87l5.54-5.537 17.4 17.403-5.53 5.537-17.41-17.403zM1237.66 66.547l5.53 5.538-17.4 17.403-5.54-5.537 17.41-17.404z"/><path d="M1220.25 72.085l5.54-5.538 17.4 17.404-5.53 5.537-17.41-17.403z"/></g><mask id="be" width="76" height="75" x="1269" y="3" mask-type="alpha" maskUnits="userSpaceOnUse"><path fill="#C4C4C4" d="M1269.14 3h74.954v74.954h-74.954z"/></mask><g fill="#386339" mask="url(#be)"><path d="M1275.13 29.07l5.54 5.537-17.4 17.404-5.54-5.538 17.4-17.403z"/><path d="M1257.73 34.607l5.54-5.537 17.4 17.403-5.54 5.538-17.4-17.404zM1350.09 29.07l5.54 5.537-17.41 17.404-5.54-5.538 17.41-17.403z"/><path d="M1332.68 34.607l5.54-5.537 17.41 17.403-5.54 5.538-17.41-17.404zM1312.61-8.407l5.54 5.537-17.41 17.403-5.53-5.537 17.4-17.403z"/><path d="M1295.21-2.87l5.53-5.537 17.41 17.403-5.54 5.537-17.4-17.403zM1312.61 66.547l5.54 5.538-17.41 17.403-5.53-5.537 17.4-17.404z"/><path d="M1295.21 72.085l5.53-5.538 17.41 17.404-5.54 5.537-17.4-17.403z"/></g><mask id="bf" width="75" height="76" x="1344" y="227" mask-type="alpha" maskUnits="userSpaceOnUse"><path fill="#C4C4C4" d="M1344 227.136h74.954v74.954H1344z"/></mask><g fill="#386339" mask="url(#bf)"><path d="M1350 253.206l5.53 5.538-17.4 17.403-5.54-5.537 17.41-17.404z"/><path d="M1332.59 258.744l5.54-5.538 17.4 17.404-5.53 5.537-17.41-17.403zM1424.95 253.206l5.54 5.538-17.4 17.403-5.54-5.537 17.4-17.404z"/><path d="M1407.55 258.744l5.54-5.538 17.4 17.404-5.54 5.537-17.4-17.403zM1387.47 215.729l5.54 5.537-17.4 17.404-5.54-5.538 17.4-17.403z"/><path d="M1370.07 221.266l5.54-5.537 17.4 17.403-5.54 5.538-17.4-17.404zM1387.47 290.684l5.54 5.537-17.4 17.403-5.54-5.537 17.4-17.403z"/><path d="M1370.07 296.221l5.54-5.537 17.4 17.403-5.54 5.537-17.4-17.403z"/></g><mask id="bg" width="75" height="76" x="1344" y="302" mask-type="alpha" maskUnits="userSpaceOnUse"><path fill="#C4C4C4" d="M1344 302.091h74.954v74.954H1344z"/></mask><g fill="#386339" mask="url(#bg)"><path d="M1350 328.161l5.53 5.537-17.4 17.404-5.54-5.538 17.41-17.403z"/><path d="M1332.59 333.698l5.54-5.537 17.4 17.403-5.53 5.538-17.41-17.404zM1424.95 328.161l5.54 5.537-17.4 17.404-5.54-5.538 17.4-17.403z"/><path d="M1407.55 333.698l5.54-5.537 17.4 17.403-5.54 5.538-17.4-17.404zM1387.47 290.684l5.54 5.537-17.4 17.403-5.54-5.537 17.4-17.403z"/><path d="M1370.07 296.221l5.54-5.537 17.4 17.403-5.54 5.537-17.4-17.403zM1387.47 365.638l5.54 5.538-17.4 17.403-5.54-5.538 17.4-17.403z"/><path d="M1370.07 371.176l5.54-5.538 17.4 17.403-5.54 5.538-17.4-17.403z"/></g><mask id="bh" width="75" height="75" x="1344" y="377" mask-type="alpha" maskUnits="userSpaceOnUse"><path fill="#C4C4C4" d="M1344 377.045h74.954v74.954H1344z"/></mask><g fill="#386339" mask="url(#bh)"><path d="M1350 403.115l5.53 5.538-17.4 17.403-5.54-5.537 17.41-17.404z"/><path d="M1332.59 408.653l5.54-5.538 17.4 17.404-5.53 5.537-17.41-17.403zM1424.95 403.115l5.54 5.538-17.4 17.403-5.54-5.537 17.4-17.404z"/><path d="M1407.55 408.653l5.54-5.538 17.4 17.404-5.54 5.537-17.4-17.403zM1387.47 365.638l5.54 5.538-17.4 17.403-5.54-5.538 17.4-17.403z"/><path d="M1370.07 371.176l5.54-5.538 17.4 17.403-5.54 5.538-17.4-17.403zM1387.47 440.593l5.54 5.537-17.4 17.403-5.54-5.537 17.4-17.403z"/><path d="M1370.07 446.13l5.54-5.537 17.4 17.403-5.54 5.537-17.4-17.403z"/></g><mask id="bi" width="75" height="76" x="1344" y="152" mask-type="alpha" maskUnits="userSpaceOnUse"><path fill="#C4C4C4" d="M1344 152.182h74.954v74.954H1344z"/></mask><g fill="#386339" mask="url(#bi)"><path d="M1350 178.252l5.53 5.537-17.4 17.403-5.54-5.537 17.41-17.403z"/><path d="M1332.59 183.789l5.54-5.537 17.4 17.403-5.53 5.537-17.41-17.403zM1424.95 178.252l5.54 5.537-17.4 17.403-5.54-5.537 17.4-17.403z"/><path d="M1407.55 183.789l5.54-5.537 17.4 17.403-5.54 5.537-17.4-17.403zM1387.47 140.775l5.54 5.537-17.4 17.403-5.54-5.537 17.4-17.403z"/><path d="M1370.07 146.312l5.54-5.537 17.4 17.403-5.54 5.537-17.4-17.403zM1387.47 215.729l5.54 5.537-17.4 17.404-5.54-5.538 17.4-17.403z"/><path d="M1370.07 221.266l5.54-5.537 17.4 17.403-5.54 5.538-17.4-17.404z"/></g><mask id="bj" width="76" height="76" x="1418" y="227" mask-type="alpha" maskUnits="userSpaceOnUse"><path fill="#C4C4C4" d="M1418.96 227.136h74.954v74.954h-74.954z"/></mask><g fill="#386339" mask="url(#bj)"><path d="M1424.95 253.206l5.54 5.538-17.4 17.403-5.54-5.537 17.4-17.404z"/><path d="M1407.55 258.744l5.54-5.538 17.4 17.404-5.54 5.537-17.4-17.403z"/></g><mask id="bk" width="76" height="76" x="1418" y="302" mask-type="alpha" maskUnits="userSpaceOnUse"><path fill="#C4C4C4" d="M1418.96 302.091h74.954v74.954h-74.954z"/></mask><g fill="#386339" mask="url(#bk)"><path d="M1424.95 328.161l5.54 5.537-17.4 17.404-5.54-5.538 17.4-17.403z"/><path d="M1407.55 333.698l5.54-5.537 17.4 17.403-5.54 5.538-17.4-17.404z"/></g><mask id="bl" width="76" height="75" x="1418" y="377" mask-type="alpha" maskUnits="userSpaceOnUse"><path fill="#C4C4C4" d="M1418.96 377.045h74.954v74.954h-74.954z"/></mask><g fill="#386339" mask="url(#bl)"><path d="M1424.95 403.115l5.54 5.538-17.4 17.403-5.54-5.537 17.4-17.404z"/><path d="M1407.55 408.653l5.54-5.538 17.4 17.404-5.54 5.537-17.4-17.403z"/></g><mask id="bm" width="76" height="76" x="1418" y="152" mask-type="alpha" maskUnits="userSpaceOnUse"><path fill="#C4C4C4" d="M1418.96 152.182h74.954v74.954h-74.954z"/></mask><g fill="#386339" mask="url(#bm)"><path d="M1424.95 178.252l5.54 5.537-17.4 17.403-5.54-5.537 17.4-17.403z"/><path d="M1407.55 183.789l5.54-5.537 17.4 17.403-5.54 5.537-17.4-17.403z"/></g><mask id="bn" width="75" height="75" x="1344" y="78" mask-type="alpha" maskUnits="userSpaceOnUse"><path fill="#C4C4C4" d="M1344 78h74.954v74.954H1344z"/></mask><g fill="#386339" mask="url(#bn)"><path d="M1350 104.07l5.53 5.537-17.4 17.404-5.54-5.538L1350 104.07z"/><path d="M1332.59 109.607l5.54-5.537 17.4 17.403-5.53 5.538-17.41-17.404zM1424.95 104.07l5.54 5.537-17.4 17.404-5.54-5.538 17.4-17.403z"/><path d="M1407.55 109.607l5.54-5.537 17.4 17.403-5.54 5.538-17.4-17.404zM1387.47 66.593l5.54 5.537-17.4 17.403-5.54-5.537 17.4-17.403z"/><path d="M1370.07 72.13l5.54-5.537 17.4 17.403-5.54 5.537-17.4-17.403zM1387.47 141.547l5.54 5.538-17.4 17.403-5.54-5.537 17.4-17.404z"/><path d="M1370.07 147.085l5.54-5.538 17.4 17.404-5.54 5.537-17.4-17.403z"/></g><mask id="bo" width="76" height="75" x="1418" y="78" mask-type="alpha" maskUnits="userSpaceOnUse"><path fill="#C4C4C4" d="M1418.96 78h74.954v74.954h-74.954z"/></mask><g fill="#386339" mask="url(#bo)"><path d="M1424.95 104.07l5.54 5.537-17.4 17.404-5.54-5.538 17.4-17.403z"/><path d="M1407.55 109.607l5.54-5.537 17.4 17.403-5.54 5.538-17.4-17.404z"/></g><mask id="bp" width="75" height="75" x="1344" y="3" mask-type="alpha" maskUnits="userSpaceOnUse"><path fill="#C4C4C4" d="M1344 3h74.954v74.954H1344z"/></mask><g fill="#386339" mask="url(#bp)"><path d="M1350 29.07l5.53 5.537-17.4 17.404-5.54-5.538L1350 29.07z"/><path d="M1332.59 34.607l5.54-5.537 17.4 17.403-5.53 5.538-17.41-17.404zM1424.95 29.07l5.54 5.537-17.4 17.404-5.54-5.538 17.4-17.403z"/><path d="M1407.55 34.607l5.54-5.537 17.4 17.403-5.54 5.538-17.4-17.404zM1387.47-8.407l5.54 5.537-17.4 17.403-5.54-5.537 17.4-17.403z"/><path d="M1370.07-2.87l5.54-5.537 17.4 17.403-5.54 5.537-17.4-17.403zM1387.47 66.547l5.54 5.538-17.4 17.403-5.54-5.537 17.4-17.404z"/><path d="M1370.07 72.085l5.54-5.538 17.4 17.404-5.54 5.537-17.4-17.403z"/></g><mask id="bq" width="76" height="75" x="1418" y="3" mask-type="alpha" maskUnits="userSpaceOnUse"><path fill="#C4C4C4" d="M1418.96 3h74.954v74.954h-74.954z"/></mask><g fill="#386339" mask="url(#bq)"><path d="M1424.95 29.07l5.54 5.537-17.4 17.404-5.54-5.538 17.4-17.403z"/><path d="M1407.55 34.607l5.54-5.537 17.4 17.403-5.54 5.538-17.4-17.404z"/></g></g><defs><filter id="filter0_d" width="1460" height="533" x="-10" y="-7" color-interpolation-filters="sRGB" filterUnits="userSpaceOnUse"><feFlood flood-opacity="0" result="BackgroundImageFix"/><feColorMatrix in="SourceAlpha" type="matrix" values="0 0 0 0 0 0 0 0 0 0 0 0 0 0 0 0 0 0 127 0"/><feOffset dy="5"/><feGaussianBlur stdDeviation="5"/><feColorMatrix type="matrix" values="0 0 0 0 0 0 0 0 0 0 0 0 0 0 0 0 0 0 0.2 0"/><feBlend in2="BackgroundImageFix" mode="normal" result="effect1_dropShadow"/><feBlend in="SourceGraphic" in2="effect1_dropShadow" mode="normal" result="shape"/></filter><linearGradient id="paint0_linear" x1="720" x2="720" y1="0" y2="513" gradientUnits="userSpaceOnUse"><stop stop-color="#477748"/><stop offset="1" stop-color="#365F37"/></linearGradient><linearGradient id="paint1_linear" x1="720" x2="720" y1="-2" y2="511" gradientUnits="userSpaceOnUse"><stop stop-color="#477748"/><stop offset="1" stop-color="#365F37"/></linearGradient></defs></svg>