<svg width="1440" height="513" viewBox="0 0 1440 513" fill="none" xmlns="http://www.w3.org/2000/svg">
<mask id="mask0" mask-type="alpha" maskUnits="userSpaceOnUse" x="0" y="0" width="1440" height="513">
<path d="M1440 459.049V0H0V513C897.346 513 1440 459.049 1440 459.049Z" fill="url(#paint0_linear)"/>
</mask>
<g mask="url(#mask0)">
<path d="M1440 464.207V-2H0V519C897.346 519 1440 464.207 1440 464.207Z" fill="#2D6E30"/>
<ellipse cx="1439.5" cy="388" rx="147.5" ry="140" fill="#386D3A"/>
<path d="M182 288C63.6 251.2 32 102.667 0 50L-62 542L440 524C403.333 460.667 300.4 324.8 182 288Z" fill="#327A35" fill-opacity="0.78"/>
<path d="M174 328C151.6 228.8 34 97.3333 -22 44L1472 -6L1484 484L376 568C318 529.333 196.4 427.2 174 328Z" fill="#18571B" fill-opacity="0.58"/>
</g>
<defs>
<linearGradient id="paint0_linear" x1="720" y1="0" x2="720" y2="513" gradientUnits="userSpaceOnUse">
<stop stop-color="#477748"/>
<stop offset="1" stop-color="#365F37"/>
</linearGradient>
</defs>
</svg>
