<?xml version="1.0" standalone="no"?><!DOCTYPE svg PUBLIC "-//W3C//DTD SVG 1.1//EN" "http://www.w3.org/Graphics/SVG/1.1/DTD/svg11.dtd"><svg width="100%" height="100%" viewBox="0 0 30 30" version="1.1" xmlns="http://www.w3.org/2000/svg" xmlns:xlink="http://www.w3.org/1999/xlink" xml:space="preserve" style="fill-rule:evenodd;clip-rule:evenodd;stroke-linejoin:round;stroke-miterlimit:1.41421;"><path d="M15,1c-1.445,-0.002 -2.877,0.261 -4.212,0.775c-1.336,0.514 -2.549,1.267 -3.571,2.218c-1.022,0.951 -1.832,2.08 -2.384,3.323c-0.552,1.243 -0.835,2.574 -0.833,3.919c0,7.933 11,17.765 11,17.765c0,0 11,-9.863 11,-17.765c0.002,-1.345 -0.281,-2.676 -0.833,-3.919c-0.552,-1.243 -1.362,-2.372 -2.384,-3.323c-1.022,-0.951 -2.235,-1.704 -3.571,-2.218c-1.335,-0.514 -2.767,-0.777 -4.212,-0.775ZM15,15.933c-0.992,0 -1.962,-0.274 -2.787,-0.787c-0.825,-0.512 -1.467,-1.241 -1.847,-2.094c-0.38,-0.853 -0.479,-1.791 -0.285,-2.697c0.193,-0.905 0.671,-1.736 1.372,-2.389c0.702,-0.653 1.595,-1.097 2.568,-1.277c0.973,-0.18 1.982,-0.088 2.898,0.265c0.917,0.353 1.7,0.952 2.252,1.719c0.551,0.768 0.845,1.67 0.845,2.593c0.001,0.613 -0.128,1.22 -0.38,1.787c-0.252,0.567 -0.621,1.081 -1.087,1.515c-0.466,0.433 -1.02,0.777 -1.628,1.011c-0.609,0.235 -1.262,0.355 -1.921,0.354Z" style="fill:#9e9e9e;fill-rule:nonzero;"/></svg>