<svg width="12" height="12" viewBox="0 0 12 12" fill="none" xmlns="http://www.w3.org/2000/svg">
<path d="M6.07726 1C5.60351 0.999281 5.13427 1.09334 4.69644 1.27678C4.25861 1.46023 3.86079 1.72946 3.5258 2.06904C3.1908 2.40862 2.92521 2.81187 2.74424 3.2557C2.56327 3.69952 2.47048 4.17518 2.4712 4.65542C2.4712 7.48862 6.07726 11 6.07726 11C6.07726 11 9.68334 7.47763 9.68334 4.65542C9.68405 4.17518 9.59126 3.69952 9.41029 3.2557C9.22932 2.81187 8.96373 2.40862 8.62873 2.06904C8.29374 1.72946 7.89592 1.46023 7.45809 1.27678C7.02026 1.09334 6.55102 0.999281 6.07726 1V1ZM6.07726 6.3332C5.75205 6.3332 5.43415 6.23545 5.16374 6.0523C4.89334 5.86915 4.68259 5.60883 4.55813 5.30426C4.43368 4.9997 4.40112 4.66456 4.46456 4.34123C4.52801 4.0179 4.68461 3.72091 4.91457 3.4878C5.14453 3.2547 5.43752 3.09595 5.75648 3.03164C6.07544 2.96732 6.40605 3.00033 6.70651 3.12649C7.00697 3.25264 7.26377 3.46628 7.44445 3.74039C7.62513 4.01449 7.72156 4.33675 7.72156 4.66641C7.72187 4.88538 7.67954 5.10226 7.59702 5.30463C7.51449 5.507 7.39339 5.69086 7.24064 5.8457C7.08789 6.00054 6.9065 6.1233 6.70687 6.20696C6.50724 6.29061 6.29328 6.33351 6.07726 6.3332V6.3332Z" fill="#929292"/>
</svg>
