<svg width="28" height="28" viewBox="0 0 28 28" fill="none" xmlns="http://www.w3.org/2000/svg">
<path d="M13.6582 4.00001C12.6521 3.99856 11.6556 4.18667 10.7257 4.55356C9.79592 4.92046 8.95109 5.45891 8.23966 6.13807C7.52823 6.81724 6.96419 7.62375 6.57987 8.51139C6.19554 9.39904 5.99849 10.3504 6.00001 11.3108C6.00001 16.9772 13.6582 24 13.6582 24C13.6582 24 21.3164 16.9553 21.3164 11.3108C21.3179 10.3504 21.1208 9.39904 20.7365 8.51139C20.3522 7.62375 19.7881 6.81724 19.0767 6.13807C18.3653 5.45891 17.5205 4.92046 16.5906 4.55356C15.6608 4.18667 14.6643 3.99856 13.6582 4.00001V4.00001ZM13.6582 14.6664C12.9675 14.6664 12.2924 14.4709 11.7181 14.1046C11.1439 13.7383 10.6963 13.2177 10.432 12.6085C10.1677 11.9994 10.0986 11.3291 10.2333 10.6825C10.368 10.0358 10.7006 9.44182 11.189 8.97561C11.6773 8.5094 12.2996 8.1919 12.9769 8.06328C13.6543 7.93465 14.3564 8.00066 14.9945 8.25298C15.6326 8.50529 16.178 8.93256 16.5617 9.48077C16.9454 10.029 17.1502 10.6735 17.1502 11.3328C17.1508 11.7708 17.0609 12.2045 16.8857 12.6093C16.7104 13.014 16.4532 13.3817 16.1288 13.6914C15.8044 14.0011 15.4192 14.2466 14.9953 14.4139C14.5713 14.5812 14.1169 14.667 13.6582 14.6664V14.6664Z" fill="#9F9F9F"/>
</svg>
