<svg width="16" height="20" viewBox="0 0 16 20" fill="none" xmlns="http://www.w3.org/2000/svg">
<path d="M7.65819 8.28454e-06C6.65207 -0.00143869 5.65555 0.186674 4.72574 0.553565C3.79592 0.920456 2.95109 1.45891 2.23966 2.13807C1.52823 2.81724 0.964188 3.62375 0.579865 4.51139C0.195542 5.39904 -0.00150704 6.35036 8.67816e-06 7.31084C8.67816e-06 12.9772 7.65819 20 7.65819 20C7.65819 20 15.3164 12.9553 15.3164 7.31084C15.3179 6.35036 15.1208 5.39904 14.7365 4.51139C14.3522 3.62375 13.7881 2.81724 13.0767 2.13807C12.3653 1.45891 11.5205 0.920456 10.5906 0.553565C9.66082 0.186674 8.6643 -0.00143869 7.65819 8.28454e-06ZM7.65819 10.6664C6.96754 10.6664 6.2924 10.4709 5.71815 10.1046C5.14389 9.7383 4.69632 9.21766 4.43202 8.60853C4.16772 7.99939 4.09857 7.32912 4.23331 6.68246C4.36804 6.03581 4.70062 5.44182 5.18898 4.97561C5.67735 4.5094 6.29956 4.1919 6.97693 4.06328C7.65431 3.93465 8.35643 4.00066 8.99451 4.25298C9.63258 4.50529 10.178 4.93256 10.5617 5.48077C10.9454 6.02898 11.1502 6.67349 11.1502 7.33282C11.1508 7.77076 11.0609 8.20453 10.8857 8.60926C10.7104 9.01399 10.4532 9.38173 10.1288 9.6914C9.80445 10.0011 9.41923 10.2466 8.99527 10.4139C8.57132 10.5812 8.11694 10.667 7.65819 10.6664Z" fill="#9F9F9F"/>
</svg>
