<svg xmlns="http://www.w3.org/2000/svg" width="19" height="25" fill="none"><path fill="#3F6D41" fill-rule="evenodd" d="M4.17.68s1.88 1.27 1.88 3.59c0 3.98-5.54 8.35-5.54 12.49 0 4.45 3.5 7.33 6.84 8.2.48.07.64-.4.08-.56-1.38-.31-2.86-2.08-2.86-4.77 0-2.55 2.53-3.5 3.5-4.69 1.05-1.26.8-2.87.16-3.35-.64-.47-.16-1.1.9-.31 1.04.7 1.96 2.16 1.6 3.42-.4 1.66.17 2.64 1.06 2.8.88.15 1.88-.32 1.77-1.11-.1-.8-.56-1.66-.32-1.66.64 0 1.96 1.5 1.96 3.98s-2.04 4.14-2.69 4.77c-.4.4.08.87.65.63a9 9 0 0 0 5.27-8.28c0-4.45-1.7-6.45-3.5-8.11-1.77-1.66-2.2-1.27-1.7-.4 1.46 2.48.57 3.35-.48 3.35-1.29 0-1.29-2.8-1.88-4.93C9.82.97 5.33.16 4.52.08c-.6-.27-1.35.2-.35.6z" clip-rule="evenodd"/></svg>
