<svg width="138" height="35" viewBox="0 0 138 35" fill="none" xmlns="http://www.w3.org/2000/svg">
<path d="M46 25.7443V11.1989H55.929V14.054H49.5156V17.0369H55.2969V19.8991H49.5156V25.7443H46Z" fill="#3F6D41"/>
<path d="M70.9023 16.4688H67.3512C67.2612 15.7396 66.9677 15.1596 66.4705 14.7287C65.9781 14.2978 65.3318 14.0824 64.5316 14.0824C63.471 14.0824 62.6377 14.4683 62.0316 15.2401C61.4303 16.0071 61.1296 17.0843 61.1296 18.4716C61.1296 19.9157 61.4326 21.0095 62.0387 21.7528C62.6495 22.4915 63.4734 22.8608 64.5103 22.8608C65.2821 22.8608 65.9165 22.6643 66.4137 22.2713C66.9156 21.8783 67.2281 21.3314 67.3512 20.6307L70.9023 20.652C70.8361 21.2959 70.649 21.9328 70.3413 22.5625C70.0335 23.1875 69.6074 23.7557 69.0629 24.267C68.5231 24.7737 67.8673 25.1809 67.0955 25.4886C66.3237 25.7917 65.4383 25.9432 64.4393 25.9432C63.123 25.9432 61.944 25.6544 60.9023 25.0767C59.8654 24.4943 59.0463 23.6468 58.445 22.5341C57.8436 21.4214 57.543 20.0672 57.543 18.4716C57.543 16.8665 57.8484 15.5099 58.4592 14.402C59.07 13.2893 59.8962 12.4441 60.9379 11.8665C61.9795 11.2888 63.1467 11 64.4393 11C65.6135 11 66.6647 11.2154 67.5927 11.6463C68.5207 12.0724 69.2736 12.6927 69.8512 13.5071C70.4336 14.3215 70.784 15.3087 70.9023 16.4688Z" fill="#3F6D41"/>
<path d="M86.1172 16.4688H82.5661C82.4761 15.7396 82.1825 15.1596 81.6854 14.7287C81.1929 14.2978 80.5466 14.0824 79.7464 14.0824C78.6858 14.0824 77.8525 14.4683 77.2464 15.2401C76.6451 16.0071 76.3445 17.0843 76.3445 18.4716C76.3445 19.9157 76.6475 21.0095 77.2536 21.7528C77.8643 22.4915 78.6882 22.8608 79.7251 22.8608C80.4969 22.8608 81.1314 22.6643 81.6286 22.2713C82.1304 21.8783 82.4429 21.3314 82.5661 20.6307L86.1172 20.652C86.0509 21.2959 85.8639 21.9328 85.5561 22.5625C85.2483 23.1875 84.8222 23.7557 84.2777 24.267C83.7379 24.7737 83.0822 25.1809 82.3104 25.4886C81.5386 25.7917 80.6532 25.9432 79.6541 25.9432C78.3378 25.9432 77.1589 25.6544 76.1172 25.0767C75.0803 24.4943 74.2611 23.6468 73.6598 22.5341C73.0585 21.4214 72.7578 20.0672 72.7578 18.4716C72.7578 16.8665 73.0632 15.5099 73.674 14.402C74.2848 13.2893 75.111 12.4441 76.1527 11.8665C77.1944 11.2888 78.3615 11 79.6541 11C80.8284 11 81.8795 11.2154 82.8075 11.6463C83.7356 12.0724 84.4884 12.6927 85.0661 13.5071C85.6484 14.3215 85.9988 15.3087 86.1172 16.4688Z" fill="#3F6D41"/>
<path d="M92.4258 11.1989H96.7795L100.473 20.2045H100.643L104.336 11.1989H108.69V25.7443H105.267V16.8097H105.146L101.652 25.652H99.4641L95.9698 16.7599H95.8491V25.7443H92.4258V11.1989Z" fill="#3F6D41"/>
<path d="M124.086 16.4688H120.535C120.445 15.7396 120.151 15.1596 119.654 14.7287C119.162 14.2978 118.515 14.0824 117.715 14.0824C116.655 14.0824 115.821 14.4683 115.215 15.2401C114.614 16.0071 114.313 17.0843 114.313 18.4716C114.313 19.9157 114.616 21.0095 115.222 21.7528C115.833 22.4915 116.657 22.8608 117.694 22.8608C118.466 22.8608 119.1 22.6643 119.597 22.2713C120.099 21.8783 120.412 21.3314 120.535 20.6307L124.086 20.652C124.02 21.2959 123.833 21.9328 123.525 22.5625C123.217 23.1875 122.791 23.7557 122.246 24.267C121.707 24.7737 121.051 25.1809 120.279 25.4886C119.507 25.7917 118.622 25.9432 117.623 25.9432C116.307 25.9432 115.128 25.6544 114.086 25.0767C113.049 24.4943 112.23 23.6468 111.629 22.5341C111.027 21.4214 110.727 20.0672 110.727 18.4716C110.727 16.8665 111.032 15.5099 111.643 14.402C112.254 13.2893 113.08 12.4441 114.121 11.8665C115.163 11.2888 116.33 11 117.623 11C118.797 11 119.848 11.2154 120.776 11.6463C121.704 12.0724 122.457 12.6927 123.035 13.5071C123.617 14.3215 123.968 15.3087 124.086 16.4688Z" fill="#3F6D41"/>
<path d="M126.098 25.7443V11.1989H132.106C133.195 11.1989 134.135 11.3954 134.926 11.7884C135.721 12.1813 136.334 12.7401 136.765 13.4645C137.196 14.1842 137.412 15.0436 137.412 16.0426C137.412 17.0464 137.191 17.901 136.751 18.6065C136.311 19.312 135.69 19.8447 134.89 20.2045L137.909 25.7443H134.074L131.417 20.7656H129.613V25.7443H126.098ZM129.613 17.9957H131.346C132.137 17.9957 132.738 17.8395 133.15 17.527C133.562 17.2098 133.768 16.715 133.768 16.0426C133.768 14.7027 132.961 14.0327 131.346 14.0327H129.613V17.9957Z" fill="#3F6D41"/>
<circle cx="17.5" cy="17.5" r="17.5" fill="#3F6D41"/>
<g clip-path="url(#clip0)">
<path fill-rule="evenodd" clip-rule="evenodd" d="M14.1194 9.57759C14.1194 9.57759 15.4379 10.4632 15.4379 12.0866C15.4379 14.8723 11.5579 17.9348 11.5579 20.8311C11.5579 23.949 14.0064 25.9598 16.342 26.5686C16.681 26.624 16.794 26.2919 16.3985 26.1812C15.4379 25.9598 14.4019 24.7238 14.4019 22.8421C14.4019 21.0525 16.1725 20.3884 16.8505 19.5582C17.5851 18.6727 17.4156 17.5473 16.9636 17.2153C16.5115 16.8832 16.8505 16.4404 17.5851 16.9939C18.3196 17.492 18.9601 18.5067 18.7152 19.3922C18.4327 20.5544 18.8283 21.2371 19.4498 21.3477C20.0714 21.4584 20.7682 21.1263 20.6929 20.5729C20.6176 20.0194 20.2974 19.4107 20.4669 19.4107C20.9189 19.4107 21.8418 20.4622 21.8418 22.1964C21.8418 23.9305 20.4104 25.0928 19.9583 25.5355C19.6758 25.8122 20.0148 26.1443 20.4104 25.9783C20.5799 25.923 20.9754 25.7016 21.2015 25.5355C22.3315 24.7607 24.1021 23.1372 24.1021 20.1855C24.1021 17.0677 22.9154 15.6656 21.6535 14.5034C20.4104 13.3411 20.109 13.6179 20.4669 14.2266C21.4839 15.9608 20.8624 16.5695 20.1279 16.5695C19.2238 16.5695 19.2238 14.614 18.8094 13.1197C18.0748 9.78059 14.9293 9.20867 14.3643 9.15327C13.9499 8.96881 13.4225 9.30087 14.1194 9.57759V9.57759Z" fill="white"/>
</g>
<defs>
<clipPath id="clip0">
<rect width="17.5" height="17.5" fill="white" transform="translate(9.1001 9.1)"/>
</clipPath>
</defs>
</svg>
