<svg width="1440" height="513" viewBox="0 0 1440 513" fill="none" xmlns="http://www.w3.org/2000/svg">
<mask id="mask0" mask-type="alpha" maskUnits="userSpaceOnUse" x="0" y="0" width="1440" height="513">
<path d="M1440 459.049V0H0V513C897.346 513 1440 459.049 1440 459.049Z" fill="url(#paint0_linear)"/>
</mask>
<g mask="url(#mask0)">
<path d="M1440 457.049V-2H0V511C897.346 511 1440 457.049 1440 457.049Z" fill="#2D6E30"/>
<path d="M129.782 263C-35.8175 353.306 -69.9998 452 -70 510L642.436 548L1438 460V0H249.261C249.261 0 298.5 170.993 129.782 263Z" fill="#19521B"/>
<ellipse cx="122.5" cy="497" rx="147.5" ry="140" fill="#D7D7D7" fill-opacity="0.48"/>
<ellipse cx="1439.5" cy="388" rx="147.5" ry="140" fill="#386D3A"/>
</g>
<defs>
<linearGradient id="paint0_linear" x1="720" y1="0" x2="720" y2="513" gradientUnits="userSpaceOnUse">
<stop stop-color="#477748"/>
<stop offset="1" stop-color="#365F37"/>
</linearGradient>
</defs>
</svg>
