<svg width="128" height="34" viewBox="0 0 128 34" fill="none" xmlns="http://www.w3.org/2000/svg">
<path d="M41.1348 26.336L42.7203 22.593C44.4559 23.8917 46.7208 24.5793 48.9845 24.5793C50.6444 24.5793 51.7019 23.93 51.7019 22.9374C51.6641 20.187 41.7019 22.3264 41.6263 15.4133C41.5885 11.8999 44.6828 9.18774 49.0614 9.18774C51.6653 9.18774 54.2693 9.83709 56.1183 11.3271L54.6373 15.1505C52.9358 14.0457 50.8347 13.2751 48.8357 13.2751C47.477 13.2751 46.5708 13.9245 46.5708 14.7652C46.6086 17.4774 56.6464 15.9873 56.7598 22.5955C56.7598 26.1854 53.7399 28.7062 49.4382 28.7062C46.2671 28.7037 43.3619 27.9395 41.1348 26.336Z" fill="black"/>
<path d="M102.342 21.2369C101.552 22.6504 100.053 23.6047 98.3339 23.6047C95.7917 23.6047 93.7297 21.5189 93.7297 18.9444C93.7297 16.37 95.7904 14.2842 98.3339 14.2842C100.053 14.2842 101.552 15.2385 102.342 16.652L106.748 14.1809C105.098 11.2008 101.949 9.18518 98.3339 9.18518C93.0087 9.18518 88.6919 13.5545 88.6919 18.9444C88.6919 24.3344 93.0087 28.7037 98.3339 28.7037C101.95 28.7037 105.098 26.6881 106.748 23.708L102.342 21.2369Z" fill="black"/>
<path d="M64.4899 1.0614H58.9795V28.321H64.4899V1.0614Z" fill="black"/>
<path d="M108.892 1.0614V28.3223H114.403V20.1538L120.931 28.3223H127.973L119.671 18.6191L127.369 9.56663H120.629L114.403 17.0921V1.0614H108.892Z" fill="black"/>
<path d="M80.8256 21.2739C80.0328 22.6109 78.3728 23.6034 76.5238 23.6034C73.9816 23.6034 71.9196 21.5176 71.9196 18.9432C71.9196 16.3688 73.9816 14.283 76.5238 14.283C78.3728 14.283 80.0328 15.3137 80.8256 16.689V21.2739ZM80.8256 9.56662V11.7825C79.9193 10.2542 77.6935 9.18518 75.3529 9.18518C70.5219 9.18518 66.7104 13.5009 66.7104 18.9253C66.7104 24.3497 70.5219 28.7037 75.3529 28.7037C77.6922 28.7037 79.9193 27.6347 80.8243 26.1063V28.321H86.3335V9.56662H80.8256Z" fill="black"/>
<path d="M7.10444 21.2407C7.10444 23.1428 5.58063 24.6852 3.70139 24.6852C1.82215 24.6852 0.29834 23.1428 0.29834 21.2407C0.29834 19.3386 1.82215 17.7963 3.70139 17.7963H7.10444V21.2407Z" fill="#E01E5A"/>
<path d="M8.80615 21.2407C8.80615 19.3386 10.33 17.7963 12.2092 17.7963C14.0884 17.7963 15.6122 19.3386 15.6122 21.2407V29.8518C15.6122 31.7539 14.0884 33.2963 12.2092 33.2963C10.33 33.2963 8.80615 31.7539 8.80615 29.8518V21.2407Z" fill="#E01E5A"/>
<path d="M12.2092 7.46298C10.33 7.46298 8.80615 5.92064 8.80615 4.01854C8.80615 2.11644 10.33 0.574097 12.2092 0.574097C14.0884 0.574097 15.6122 2.11644 15.6122 4.01854V7.46298H12.2092Z" fill="#36C5F0"/>
<path d="M12.209 9.18518C14.0882 9.18518 15.6121 10.7275 15.6121 12.6296C15.6121 14.5317 14.0882 16.0741 12.209 16.0741H3.70139C1.82215 16.0741 0.29834 14.5317 0.29834 12.6296C0.29834 10.7275 1.82215 9.18518 3.70139 9.18518H12.209Z" fill="#36C5F0"/>
<path d="M25.8213 12.6296C25.8213 10.7275 27.3451 9.18518 29.2243 9.18518C31.1036 9.18518 32.6274 10.7275 32.6274 12.6296C32.6274 14.5317 31.1036 16.0741 29.2243 16.0741H25.8213V12.6296Z" fill="#2EB67D"/>
<path d="M24.1196 12.6297C24.1196 14.5317 22.5958 16.0741 20.7165 16.0741C18.8373 16.0741 17.3135 14.5317 17.3135 12.6297V4.01854C17.3135 2.11644 18.8373 0.574097 20.7165 0.574097C22.5958 0.574097 24.1196 2.11644 24.1196 4.01854V12.6297Z" fill="#2EB67D"/>
<path d="M20.7165 26.4073C22.5958 26.4073 24.1196 27.9497 24.1196 29.8518C24.1196 31.7539 22.5958 33.2962 20.7165 33.2962C18.8373 33.2962 17.3135 31.7539 17.3135 29.8518V26.4073H20.7165Z" fill="#ECB22E"/>
<path d="M20.7165 24.6852C18.8373 24.6852 17.3135 23.1428 17.3135 21.2407C17.3135 19.3386 18.8373 17.7963 20.7165 17.7963H29.2242C31.1034 17.7963 32.6272 19.3386 32.6272 21.2407C32.6272 23.1428 31.1034 24.6852 29.2242 24.6852H20.7165Z" fill="#ECB22E"/>
</svg>
