<svg xmlns="http://www.w3.org/2000/svg" width="118" height="31" fill="none"><path fill="#fff" d="M37.829 23.775l1.46-3.445c1.597 1.195 3.681 1.828 5.765 1.828 1.528 0 2.501-.597 2.501-1.51-.035-2.533-9.204-.563-9.274-6.927-.035-3.233 2.813-5.73 6.844-5.73 2.397 0 4.794.598 6.495 1.97l-1.363 3.518c-1.566-1.016-3.5-1.726-5.34-1.726-1.25 0-2.085.598-2.085 1.372.035 2.496 9.274 1.125 9.379 7.207 0 3.305-2.78 5.625-6.74 5.625-2.918-.002-5.592-.706-7.642-2.182zM94.167 19.082a4.226 4.226 0 0 1-3.69 2.18c-2.34 0-4.237-1.92-4.237-4.29s1.897-4.29 4.238-4.29c1.582 0 2.962.879 3.69 2.18l4.055-2.275c-1.519-2.743-4.418-4.598-7.745-4.598-4.902 0-8.875 4.022-8.875 8.983 0 4.96 3.973 8.983 8.875 8.983 3.328 0 6.226-1.856 7.745-4.599l-4.056-2.274zM59.326.511h-5.072v25.091h5.072V.512zM100.196.511v25.093h5.072v-7.52l6.01 7.52h6.481l-7.641-8.932 7.086-8.332h-6.205l-5.731 6.927V.51h-5.072zM74.362 19.116c-.73 1.23-2.257 2.144-3.96 2.144-2.34 0-4.237-1.92-4.237-4.29s1.898-4.289 4.238-4.289c1.702 0 3.23.949 3.96 2.215v4.22zm0-10.776v2.04c-.834-1.407-2.882-2.391-5.037-2.391-4.447 0-7.955 3.972-7.955 8.965s3.508 9 7.955 9c2.153 0 4.203-.983 5.036-2.39v2.038h5.071V8.34h-5.07z"/><path fill="#E01E5A" d="M6.505 19.085c0 1.751-1.402 3.17-3.132 3.17-1.73 0-3.132-1.419-3.132-3.17 0-1.75 1.402-3.17 3.132-3.17h3.132v3.17zM8.071 19.085c0-1.75 1.403-3.17 3.133-3.17s3.132 1.42 3.132 3.17v7.926c0 1.751-1.402 3.17-3.132 3.17-1.73 0-3.133-1.419-3.133-3.17v-7.926z"/><path fill="#36C5F0" d="M11.204 6.403c-1.73 0-3.133-1.42-3.133-3.17S9.474.063 11.204.063s3.132 1.42 3.132 3.17v3.17h-3.132zM11.204 7.989c1.73 0 3.132 1.42 3.132 3.17s-1.402 3.17-3.132 3.17H3.373c-1.73 0-3.132-1.42-3.132-3.17s1.402-3.17 3.132-3.17h7.83z"/><path fill="#2EB67D" d="M23.733 11.16c0-1.752 1.403-3.171 3.133-3.171s3.132 1.42 3.132 3.17-1.403 3.17-3.133 3.17h-3.132v-3.17zM22.167 11.16c0 1.75-1.403 3.17-3.132 3.17-1.73 0-3.133-1.42-3.133-3.17V3.232c0-1.75 1.403-3.17 3.133-3.17s3.132 1.42 3.132 3.17v7.926z"/><path fill="#ECB22E" d="M19.035 23.84c1.73 0 3.132 1.42 3.132 3.171s-1.403 3.17-3.132 3.17c-1.73 0-3.133-1.419-3.133-3.17v-3.17h3.133zM19.035 22.256c-1.73 0-3.133-1.42-3.133-3.17 0-1.752 1.403-3.171 3.133-3.171h7.83c1.73 0 3.133 1.42 3.133 3.17 0 1.751-1.403 3.17-3.133 3.17h-7.83z"/></svg>