<svg width="155" height="102" viewBox="0 0 155 102" fill="none" xmlns="http://www.w3.org/2000/svg">
<path d="M54.2461 57.336L55.8317 53.593C57.5672 54.8917 59.8321 55.5793 62.0958 55.5793C63.7557 55.5793 64.8132 54.93 64.8132 53.9374C64.7754 51.187 54.8133 53.3264 54.7376 46.4133C54.6998 42.8999 57.7941 40.1877 62.1727 40.1877C64.7766 40.1877 67.3806 40.8371 69.2296 42.3271L67.7486 46.1505C66.0471 45.0457 63.946 44.2751 61.9471 44.2751C60.5884 44.2751 59.6822 44.9245 59.6822 45.7652C59.72 48.4774 69.7577 46.9873 69.8711 53.5955C69.8711 57.1854 66.8512 59.7062 62.5495 59.7062C59.3784 59.7037 56.4732 58.9395 54.2461 57.336Z" fill="white"/>
<path d="M115.453 52.2369C114.663 53.6504 113.164 54.6047 111.445 54.6047C108.903 54.6047 106.841 52.5189 106.841 49.9444C106.841 47.37 108.902 45.2842 111.445 45.2842C113.164 45.2842 114.663 46.2385 115.453 47.652L119.86 45.1809C118.21 42.2008 115.06 40.1852 111.445 40.1852C106.12 40.1852 101.803 44.5545 101.803 49.9444C101.803 55.3344 106.12 59.7037 111.445 59.7037C115.061 59.7037 118.21 57.6881 119.86 54.708L115.453 52.2369Z" fill="white"/>
<path d="M77.601 32.0614H72.0906V59.321H77.601V32.0614Z" fill="white"/>
<path d="M122.003 32.0614V59.3223H127.514V51.1538L134.043 59.3223H141.084L132.782 49.6191L140.481 40.5666H133.74L127.514 48.0921V32.0614H122.003Z" fill="white"/>
<path d="M93.9369 52.2739C93.1441 53.6109 91.4842 54.6034 89.6352 54.6034C87.093 54.6034 85.031 52.5176 85.031 49.9432C85.031 47.3688 87.093 45.283 89.6352 45.283C91.4842 45.283 93.1441 46.3137 93.9369 47.689V52.2739ZM93.9369 40.5666V42.7825C93.0307 41.2542 90.8048 40.1852 88.4643 40.1852C83.6332 40.1852 79.8218 44.5009 79.8218 49.9253C79.8218 55.3497 83.6332 59.7037 88.4643 59.7037C90.8036 59.7037 93.0307 58.6347 93.9356 57.1063V59.321H99.4448V40.5666H93.9369Z" fill="white"/>
<path d="M20.2155 52.2407C20.2155 54.1428 18.6917 55.6852 16.8125 55.6852C14.9332 55.6852 13.4094 54.1428 13.4094 52.2407C13.4094 50.3386 14.9332 48.7963 16.8125 48.7963H20.2155V52.2407Z" fill="#E01E5A"/>
<path d="M21.917 52.2407C21.917 50.3386 23.4408 48.7963 25.32 48.7963C27.1993 48.7963 28.7231 50.3386 28.7231 52.2407V60.8518C28.7231 62.7539 27.1993 64.2963 25.32 64.2963C23.4408 64.2963 21.917 62.7539 21.917 60.8518V52.2407Z" fill="#E01E5A"/>
<path d="M25.32 38.463C23.4408 38.463 21.917 36.9206 21.917 35.0185C21.917 33.1164 23.4408 31.5741 25.32 31.5741C27.1993 31.5741 28.7231 33.1164 28.7231 35.0185V38.463H25.32Z" fill="#36C5F0"/>
<path d="M25.3201 40.1852C27.1993 40.1852 28.7231 41.7275 28.7231 43.6296C28.7231 45.5317 27.1993 47.0741 25.3201 47.0741H16.8125C14.9332 47.0741 13.4094 45.5317 13.4094 43.6296C13.4094 41.7275 14.9332 40.1852 16.8125 40.1852H25.3201Z" fill="#36C5F0"/>
<path d="M38.9324 43.6296C38.9324 41.7275 40.4562 40.1852 42.3354 40.1852C44.2147 40.1852 45.7385 41.7275 45.7385 43.6296C45.7385 45.5317 44.2147 47.0741 42.3354 47.0741H38.9324V43.6296Z" fill="#2EB67D"/>
<path d="M37.2309 43.6297C37.2309 45.5317 35.7071 47.0741 33.8279 47.0741C31.9486 47.0741 30.4248 45.5317 30.4248 43.6297V35.0185C30.4248 33.1164 31.9486 31.5741 33.8279 31.5741C35.7071 31.5741 37.2309 33.1164 37.2309 35.0185V43.6297Z" fill="#2EB67D"/>
<path d="M33.8279 57.4073C35.7071 57.4073 37.2309 58.9497 37.2309 60.8518C37.2309 62.7539 35.7071 64.2962 33.8279 64.2962C31.9486 64.2962 30.4248 62.7539 30.4248 60.8518V57.4073H33.8279Z" fill="#ECB22E"/>
<path d="M33.8279 55.6852C31.9486 55.6852 30.4248 54.1428 30.4248 52.2407C30.4248 50.3386 31.9486 48.7963 33.8279 48.7963H42.3355C44.2147 48.7963 45.7385 50.3386 45.7385 52.2407C45.7385 54.1428 44.2147 55.6852 42.3355 55.6852H33.8279Z" fill="#ECB22E"/>
</svg>
