<svg width="17" height="21" viewBox="0 0 17 21" fill="none" xmlns="http://www.w3.org/2000/svg">
<path d="M3.6666 0H12.7653C13.5378 0.0164818 14.275 0.326437 14.8271 0.866879C15.3792 1.40732 15.7049 2.13771 15.7379 2.90961L16.4331 13.4007C16.4455 13.7971 16.3777 14.192 16.2336 14.5615C16.0896 14.9311 15.8723 15.2677 15.5949 15.5512C15.3174 15.8346 14.9855 16.0591 14.6192 16.211C14.2528 16.3629 13.8595 16.4393 13.4628 16.4354H12.5144L14.6 20.0378H13.2096L12.4507 18.7701H3.91903L3.22385 20.0338H1.83427L3.91903 16.4354C3.53864 16.4459 3.15802 16.4249 2.78111 16.3724C2.02256 16.3336 1.30872 16.0019 0.789991 15.4471C0.271266 14.8923 -0.0118229 14.1578 0.000378661 13.3984L0.69556 2.90961C0.72854 2.13797 1.05398 1.40781 1.60579 0.867408C2.1576 0.327006 2.89442 0.0168761 3.6666 0V0ZM15.1056 11.7548L14.7266 5.37177H1.70688L1.32783 11.7548H15.1056ZM2.52867 14.0935C2.53582 14.3595 2.64466 14.6126 2.83279 14.8007C3.02092 14.9888 3.27402 15.0977 3.53999 15.1048C3.80233 15.087 4.04932 14.9747 4.23526 14.7888C4.42119 14.6028 4.53347 14.3558 4.5513 14.0935C4.54415 13.8276 4.43531 13.5745 4.24718 13.3863C4.05905 13.1982 3.80595 13.0894 3.53999 13.0822C3.40668 13.0804 3.27437 13.1054 3.15085 13.1555C3.02734 13.2057 2.91514 13.2802 2.82087 13.3744C2.7266 13.4687 2.65217 13.5809 2.60199 13.7044C2.5518 13.8279 2.52687 13.9602 2.52867 14.0935ZM12.8935 13.0822C12.7602 13.0804 12.6279 13.1054 12.5043 13.1555C12.3808 13.2057 12.2686 13.2802 12.1744 13.3744C12.0801 13.4687 12.0057 13.5809 11.9555 13.7044C11.9053 13.8279 11.8804 13.9602 11.8822 14.0935C11.8822 14.2263 11.9083 14.3578 11.9591 14.4805C12.01 14.6032 12.0845 14.7147 12.1784 14.8086C12.2723 14.9025 12.3838 14.977 12.5065 15.0278C12.6292 15.0786 12.7607 15.1048 12.8935 15.1048C13.0263 15.1048 13.1578 15.0786 13.2805 15.0278C13.4032 14.977 13.5147 14.9025 13.6086 14.8086C13.7025 14.7147 13.777 14.6032 13.8278 14.4805C13.8786 14.3578 13.9048 14.2263 13.9048 14.0935C13.9066 13.9602 13.8817 13.8279 13.8315 13.7044C13.7813 13.5809 13.7069 13.4687 13.6126 13.3744C13.5183 13.2802 13.4061 13.2057 13.2826 13.1555C13.1591 13.1054 13.0268 13.0804 12.8935 13.0822ZM5.24648 2.21209C5.09375 2.22167 4.9504 2.28909 4.84563 2.40064C4.74086 2.51218 4.68254 2.65946 4.68254 2.81249C4.68254 2.96552 4.74086 3.1128 4.84563 3.22434C4.9504 3.33589 5.09375 3.40331 5.24648 3.41289H11.1241C11.2047 3.41581 11.2852 3.40244 11.3606 3.37359C11.436 3.34473 11.5048 3.30097 11.5629 3.24493C11.621 3.18889 11.6672 3.12172 11.6988 3.04742C11.7303 2.97312 11.7466 2.89322 11.7466 2.81249C11.7466 2.73176 11.7303 2.65186 11.6988 2.57756C11.6672 2.50327 11.621 2.43609 11.5629 2.38005C11.5048 2.32401 11.436 2.28025 11.3606 2.25139C11.2852 2.22254 11.2047 2.20917 11.1241 2.21209H5.24648ZM11.1241 16.4354H5.3094L4.61421 17.5732H11.8216L11.1241 16.4354Z" fill="#9F9F9F"/>
</svg>
