<svg xmlns="http://www.w3.org/2000/svg" fill-rule="evenodd" stroke-linejoin="round" stroke-miterlimit="1.414" clip-rule="evenodd" viewBox="0 0 17 20"><path fill="#9f9f9f" fill-rule="nonzero" d="M3.653 0h9.065a3.03 3.03 0 0 1 2.962 2.899l.692 10.452a2.93 2.93 0 0 1-2.959 3.024h-.945l2.078 3.589h-1.385l-.756-1.263h-8.5l-.693 1.259H1.828l2.077-3.585a6.933 6.933 0 0 1-1.134-.063A2.92 2.92 0 0 1 0 13.349l.693-10.45A3.03 3.03 0 0 1 3.653 0zM15.05 11.711l-.378-6.359H1.701l-.378 6.359H15.05zM2.519 14.042a1.037 1.037 0 0 0 1.008 1.007 1.079 1.079 0 0 0 1.007-1.008 1.03 1.03 0 0 0-.303-.704 1.03 1.03 0 0 0-.704-.303.991.991 0 0 0-.935.62c-.05.123-.074.255-.073.387zm10.327-1.008a.991.991 0 0 0-.935.62.99.99 0 0 0-.073.387 1 1 0 0 0 .295.713 1.013 1.013 0 0 0 1.099.218.998.998 0 0 0 .545-.545 1.018 1.018 0 0 0-.215-1.102.991.991 0 0 0-.716-.291zM5.227 2.204a.596.596 0 0 0-.562.598c0 .153.058.299.163.41a.592.592 0 0 0 .399.188h5.856a.598.598 0 1 0 0-1.196H5.227zm5.856 14.171H5.29l-.693 1.133h7.181l-.695-1.133z"/></svg>
