<?xml version="1.0" standalone="no"?><!DOCTYPE svg PUBLIC "-//W3C//DTD SVG 1.1//EN" "http://www.w3.org/Graphics/SVG/1.1/DTD/svg11.dtd"><svg width="100%" height="100%" viewBox="0 0 17 20" version="1.1" xmlns="http://www.w3.org/2000/svg" xmlns:xlink="http://www.w3.org/1999/xlink" xml:space="preserve" style="fill-rule:evenodd;clip-rule:evenodd;stroke-linejoin:round;stroke-miterlimit:1.41421;"><path d="M3.653,0l9.065,0c0.77,0.016 1.504,0.325 2.054,0.864c0.55,0.538 0.875,1.266 0.908,2.035l0.692,10.452c0.013,0.395 -0.055,0.789 -0.198,1.157c-0.144,0.368 -0.36,0.703 -0.637,0.986c-0.276,0.282 -0.607,0.506 -0.972,0.657c-0.365,0.151 -0.757,0.228 -1.152,0.224l-0.945,0l2.078,3.589l-1.385,0l-0.756,-1.263l-8.5,0l-0.693,1.259l-1.384,0l2.077,-3.585c-0.379,0.01 -0.759,-0.011 -1.134,-0.063c-0.756,-0.039 -1.467,-0.369 -1.984,-0.922c-0.517,-0.553 -0.799,-1.284 -0.787,-2.041l0.693,-10.45c0.033,-0.769 0.357,-1.496 0.907,-2.035c0.55,-0.538 1.284,-0.847 2.053,-0.864ZM15.05,11.711l-0.378,-6.359l-12.971,0l-0.378,6.359l13.727,0ZM2.519,14.042c0.007,0.264 0.116,0.517 0.303,0.704c0.188,0.188 0.44,0.296 0.705,0.303c0.261,-0.018 0.507,-0.13 0.693,-0.315c0.185,-0.185 0.297,-0.431 0.314,-0.693c-0.007,-0.265 -0.115,-0.517 -0.303,-0.704c-0.187,-0.188 -0.439,-0.296 -0.704,-0.303c-0.133,-0.002 -0.265,0.023 -0.388,0.073c-0.123,0.05 -0.235,0.124 -0.329,0.218c-0.093,0.094 -0.168,0.206 -0.218,0.329c-0.05,0.123 -0.074,0.255 -0.073,0.387ZM12.846,13.034c-0.133,-0.002 -0.265,0.023 -0.388,0.073c-0.123,0.05 -0.235,0.124 -0.329,0.218c-0.093,0.094 -0.168,0.206 -0.218,0.329c-0.05,0.123 -0.075,0.255 -0.073,0.387c0,0.133 0.026,0.264 0.077,0.386c0.051,0.122 0.125,0.233 0.218,0.327c0.094,0.093 0.205,0.168 0.327,0.218c0.123,0.051 0.254,0.077 0.386,0.077c0.132,0 0.263,-0.026 0.386,-0.077c0.122,-0.05 0.233,-0.125 0.326,-0.218c0.094,-0.094 0.168,-0.205 0.219,-0.327c0.05,-0.122 0.077,-0.253 0.077,-0.386c0.001,-0.132 -0.024,-0.264 -0.074,-0.387c-0.05,-0.123 -0.124,-0.235 -0.218,-0.329c-0.094,-0.094 -0.205,-0.168 -0.328,-0.218c-0.123,-0.05 -0.255,-0.075 -0.388,-0.073ZM5.227,2.204c-0.152,0.009 -0.295,0.077 -0.399,0.188c-0.105,0.111 -0.163,0.258 -0.163,0.41c0,0.153 0.058,0.299 0.163,0.41c0.104,0.112 0.247,0.179 0.399,0.188l5.856,0c0.08,0.003 0.16,-0.01 0.236,-0.039c0.075,-0.029 0.143,-0.072 0.201,-0.128c0.058,-0.056 0.104,-0.123 0.136,-0.197c0.031,-0.074 0.047,-0.153 0.047,-0.234c0,-0.08 -0.016,-0.16 -0.047,-0.234c-0.032,-0.074 -0.078,-0.141 -0.136,-0.197c-0.058,-0.056 -0.126,-0.099 -0.201,-0.128c-0.076,-0.029 -0.156,-0.042 -0.236,-0.039l-5.856,0ZM11.083,16.375l-5.793,0l-0.693,1.133l7.181,0l-0.695,-1.133Z" style="fill:#9f9f9f;fill-rule:nonzero;"/></svg>