<svg width="28" height="28" viewBox="0 0 28 28" fill="none" xmlns="http://www.w3.org/2000/svg">
<path d="M13.9998 2.33337C9.33317 2.33337 4.6665 2.91671 4.6665 7.00004V18.0834C4.6665 20.335 6.49817 22.1667 8.74984 22.1667L6.99984 23.9167V24.5H9.6015L11.9348 22.1667H16.3332L18.6665 24.5H20.9998V23.9167L19.2498 22.1667C21.5015 22.1667 23.3332 20.335 23.3332 18.0834V7.00004C23.3332 2.91671 19.1565 2.33337 13.9998 2.33337ZM8.74984 19.8334C7.7815 19.8334 6.99984 19.0517 6.99984 18.0834C6.99984 17.115 7.7815 16.3334 8.74984 16.3334C9.71817 16.3334 10.4998 17.115 10.4998 18.0834C10.4998 19.0517 9.71817 19.8334 8.74984 19.8334ZM12.8332 11.6667H6.99984V7.00004H12.8332V11.6667ZM15.1665 11.6667V7.00004H20.9998V11.6667H15.1665ZM19.2498 19.8334C18.2815 19.8334 17.4998 19.0517 17.4998 18.0834C17.4998 17.115 18.2815 16.3334 19.2498 16.3334C20.2182 16.3334 20.9998 17.115 20.9998 18.0834C20.9998 19.0517 20.2182 19.8334 19.2498 19.8334Z" fill="#3F6D41"/>
</svg>
