<svg width="35" height="35" viewBox="0 0 35 35" fill="none" xmlns="http://www.w3.org/2000/svg">
<path d="M13.4417 26.3891C21.6965 26.3891 26.2115 19.5501 26.2115 13.6193C26.2115 13.4251 26.2115 13.2317 26.1984 13.0392C27.0767 12.4039 27.8349 11.6172 28.4375 10.7161C27.6184 11.079 26.7495 11.3171 25.8598 11.4222C26.7967 10.8613 27.4979 9.97913 27.8329 8.93983C26.9519 9.4626 25.9881 9.83103 24.983 10.0292C24.3063 9.30968 23.4114 8.83322 22.4366 8.67358C21.4619 8.51393 20.4617 8.67998 19.5909 9.14605C18.72 9.61211 18.027 10.3522 17.6192 11.2518C17.2113 12.1514 17.1113 13.1603 17.3346 14.1225C15.5503 14.033 13.8047 13.5693 12.2112 12.7615C10.6177 11.9536 9.21186 10.8197 8.085 9.43333C7.51108 10.4213 7.3353 11.591 7.59345 12.704C7.8516 13.8171 8.52427 14.7899 9.4745 15.4245C8.76027 15.4033 8.06162 15.2106 7.4375 14.8627C7.4375 14.8811 7.4375 14.9003 7.4375 14.9196C7.43778 15.9558 7.79648 16.96 8.45275 17.7618C9.10901 18.5637 10.0225 19.1139 11.0381 19.3191C10.3774 19.4993 9.68413 19.5256 9.01162 19.3961C9.29841 20.2879 9.85676 21.0677 10.6086 21.6265C11.3604 22.1854 12.268 22.4952 13.2046 22.5128C11.6154 23.7618 9.65218 24.4399 7.63087 24.4378C7.27379 24.4371 6.91705 24.4155 6.5625 24.3731C8.61493 25.6902 11.003 26.3888 13.4417 26.3856" fill="#1DA1F2"/>
</svg>
