<svg width="32" height="32" viewBox="0 0 32 32" fill="none" xmlns="http://www.w3.org/2000/svg">
<path d="M16 27C22.0751 27 27 22.0751 27 16C27 9.92487 22.0751 5 16 5C9.92487 5 5 9.92487 5 16C5 22.0751 9.92487 27 16 27Z" fill="#F05537"/>
<path d="M15.0871 12.1098C16.7454 11.7413 18.4038 12.4169 19.3251 13.7066L11.9956 15.3651C12.2413 13.7885 13.4287 12.4783 15.0871 12.1098V12.1098ZM19.3661 18.1903C18.7928 19.0298 17.9124 19.6235 16.9092 19.8487C15.2509 20.2172 13.5721 19.5416 12.6507 18.2313L20.0007 16.5729L21.1882 16.3068L23.4812 15.7949C23.4607 15.3036 23.3993 14.8122 23.2969 14.3414C22.3756 10.39 18.3424 7.91274 14.3091 8.83399C10.2759 9.75532 7.75763 13.6862 8.69942 17.6581C9.64121 21.6299 13.654 24.0867 17.6872 23.1654C20.0622 22.6331 21.9047 21.0362 22.8465 19.0093L19.3661 18.1903V18.1903Z" fill="white"/>
</svg>
