<svg width="39" height="39" viewBox="0 0 39 39" fill="none" xmlns="http://www.w3.org/2000/svg">
<path d="M36.9422 0L33.85 35.096L19.9503 39L6.089 35.1014L3 0H36.9422Z" fill="#E44D26"/>
<path d="M19.9707 36.0157L31.2023 32.8611L33.8447 2.86987H19.9707V36.0157Z" fill="#F16529"/>
<path d="M13.9602 11.4801H19.9714V7.17505H9.31641L9.41806 8.33L10.4625 20.1936H19.9714V15.8885H14.3486L13.9602 11.4801V11.4801ZM14.9179 22.3462H10.6524L11.2476 29.1057L19.9518 31.5537L19.9714 31.5483V27.0692L19.9528 27.0742L15.2205 25.7796L14.9179 22.3462V22.3462Z" fill="#EBEBEB"/>
<path d="M19.9567 20.1936H25.1891L24.6958 25.7769L19.9565 27.0728V31.5516L28.6677 29.1057L28.7315 28.3783L29.7302 17.0445L29.8339 15.8885H19.9567V20.1936ZM19.9567 11.4696V11.4801H30.2205L30.3056 10.5125L30.4994 8.33L30.6009 7.17505H19.9567V11.4697V11.4696Z" fill="white"/>
</svg>
