<svg width="32" height="32" viewBox="0 0 32 32" fill="none" xmlns="http://www.w3.org/2000/svg">
<path d="M30.4871 13.7906C30.4211 13.4858 30.1208 13.2918 29.8159 13.3578C29.5106 13.4237 29.3169 13.7239 29.3825 14.0291C29.4485 14.3339 29.7492 14.5275 30.0541 14.462C30.359 14.396 30.5531 14.0954 30.4871 13.7906ZM29.1996 17.4518C29.111 17.0415 28.7067 16.7812 28.2967 16.8694C27.8867 16.9579 27.6258 17.362 27.7145 17.7719C27.8027 18.1822 28.2069 18.4425 28.6173 18.3543C29.0273 18.2657 29.2882 17.8617 29.1996 17.4518V17.4518ZM27.2227 11.4791C27.6868 11.1585 27.8031 10.5229 27.4824 10.059C27.1618 9.59505 26.5259 9.47887 26.0618 9.79938C25.5977 10.1199 25.4815 10.7556 25.8021 11.2195C26.1228 11.6834 26.7587 11.7996 27.2227 11.4791ZM24.64 12.2133C24.7308 11.0243 24.434 9.79898 23.7029 8.74155C22.2781 6.68037 19.6765 5.92427 17.4258 6.7402C15.4149 5.45233 12.755 5.39826 10.6674 6.84027C9.61073 7.57027 8.85781 8.57402 8.4336 9.68972C7.81916 9.77293 7.21315 9.97843 6.66777 10.3553C4.86509 11.6006 4.38949 14.0283 5.53325 15.8691C3.98103 17.2904 3.62317 19.6568 4.80258 21.4848C5.50215 22.5687 6.60103 23.2217 7.78119 23.4156C7.80305 24.3002 8.06847 25.1885 8.6093 25.9707C10.0882 28.1105 13.0227 28.6464 15.1629 27.168C15.2446 27.1113 15.3079 27.0396 15.385 26.979C16.5778 28.0434 18.3686 28.2189 19.7421 27.2701C20.475 26.7639 20.9437 26.0274 21.1481 25.2272C22.2228 25.2667 23.3171 24.9937 24.2698 24.3354C26.5554 22.7566 27.1687 19.6694 25.7066 17.3402C26.8802 16.3506 27.133 14.6199 26.2313 13.3424C25.8293 12.7723 25.2605 12.3981 24.64 12.2133V12.2133ZM18.7575 3.64612C18.4166 3.07866 17.6801 2.89462 17.1129 3.23548C16.5452 3.57594 16.3615 4.31209 16.7021 4.87951C17.0431 5.44693 17.7795 5.63061 18.3467 5.29015C18.9144 4.94929 19.0981 4.21318 18.7575 3.64612V3.64612ZM10.5696 2.79763C10.4948 2.45101 10.153 2.23056 9.80633 2.30534C9.45922 2.38012 9.23869 2.72169 9.31386 3.06866C9.38864 3.41528 9.73039 3.63573 10.0771 3.56099C10.4242 3.48622 10.6447 3.1442 10.5696 2.79763ZM7.83491 8.42371C8.25179 8.13577 8.35615 7.56451 8.06811 7.14776C7.78003 6.73096 7.20855 6.6267 6.79167 6.91464C6.37514 7.20259 6.27043 7.77385 6.55846 8.1906C6.8465 8.60699 7.41798 8.71166 7.83491 8.42371ZM3.70486 16.2137C4.08226 15.6636 3.94231 14.9117 3.39189 14.5345C2.84151 14.1571 2.08938 14.2971 1.71198 14.8473C1.33458 15.3975 1.47454 16.1494 2.02496 16.5266C2.57534 16.9039 3.32746 16.7639 3.70486 16.2137ZM5.86652 24.9021C5.93175 25.2054 6.2309 25.3983 6.53392 25.3327C6.83731 25.2671 7.03023 24.9684 6.96464 24.6652C6.89906 24.3619 6.60027 24.1694 6.29688 24.2346C5.9939 24.3002 5.80094 24.5988 5.86652 24.9021ZM14.8407 28.5295C14.4859 28.7745 14.397 29.2607 14.6421 29.6153C14.8872 29.97 15.3735 30.0589 15.7283 29.8139C16.083 29.5685 16.1721 29.0824 15.9269 28.7277C15.6819 28.3731 15.1955 28.2845 14.8407 28.5295ZM22.2282 26.3196C21.6533 26.7168 21.5091 27.5047 21.9064 28.0794C22.3038 28.6541 23.092 28.7983 23.6673 28.4011C24.2422 28.0039 24.3861 27.216 23.9887 26.6412C23.5914 26.0661 22.8031 25.9224 22.2282 26.3196Z" fill="#ED1C40"/>
<path d="M21.901 21.3286C21.7265 20.2144 19.663 21.0736 19.5357 19.8528C19.3554 18.1206 21.9317 14.3874 21.7284 12.9381C21.5458 11.6334 20.6663 11.36 19.9012 11.3466C19.1578 11.3332 18.9615 11.4517 18.7103 11.5977C18.5653 11.6817 18.357 11.8481 18.0678 11.5732C17.8756 11.3903 17.7487 11.2623 17.5454 11.1001C17.4419 11.0172 17.277 10.913 17.0008 10.8723C16.7243 10.8317 16.3664 10.8723 16.139 10.9697C15.9111 11.0675 15.7324 11.2381 15.5453 11.4007C15.3584 11.5633 14.884 12.0943 14.4418 11.8983C14.25 11.8136 13.6006 11.4892 13.132 11.2864C12.2272 10.895 10.9223 11.5291 10.4525 12.3642C9.75333 13.6064 8.37293 18.4872 8.1639 19.1309C7.69522 20.5764 8.758 21.7546 10.1913 21.6867C10.7973 21.6579 11.2004 21.4367 11.5832 20.7408C11.8045 20.339 13.8826 14.9127 14.0371 14.6523C14.1491 14.4637 14.5231 14.2145 14.8403 14.3771C15.1571 14.5396 15.2204 14.8785 15.1736 15.1979C15.0976 15.7144 13.6321 19.0247 13.5758 19.3993C13.4802 20.0361 13.7829 20.3904 14.4441 20.4249C14.8974 20.4491 15.3489 20.2861 15.7075 19.6102C15.9081 19.2321 18.2193 14.6048 18.4237 14.2958C18.6485 13.9568 18.8292 13.8453 19.0581 13.8572C19.2357 13.866 19.5199 13.9116 19.449 14.4438C19.3792 14.9656 17.5209 18.361 17.326 19.1926C17.0653 20.3041 17.6755 21.4298 18.6807 21.9225C19.322 22.2365 22.1273 22.7748 21.901 21.3286" fill="white"/>
</svg>
